<svg preserveAspectRatio="none" width="100%" height="100%" overflow="visible" style="display: block;" viewBox="0 0 32 32" fill="none" xmlns="http://www.w3.org/2000/svg">
<g id="mdi:eye-off">
<path id="Vector" d="M15.7733 12L20 16.2133V16C20 14.9391 19.5786 13.9217 18.8284 13.1716C18.0783 12.4214 17.0609 12 16 12H15.7733ZM10.04 13.0667L12.1067 15.1333C12.04 15.4133 12 15.6933 12 16C12 17.0609 12.4214 18.0783 13.1716 18.8284C13.9217 19.5786 14.9391 20 16 20C16.2933 20 16.5867 19.96 16.8667 19.8933L18.9333 21.96C18.04 22.4 17.0533 22.6667 16 22.6667C14.2319 22.6667 12.5362 21.9643 11.286 20.714C10.0357 19.4638 9.33333 17.7681 9.33333 16C9.33333 14.9467 9.6 13.96 10.04 13.0667ZM2.66667 5.69333L5.70667 8.73333L6.30667 9.33333C4.10667 11.0667 2.37333 13.3333 1.33333 16C3.64 21.8533 9.33333 26 16 26C18.0667 26 20.04 25.6 21.84 24.88L22.4133 25.44L26.3067 29.3333L28 27.64L4.36 4M16 9.33333C17.7681 9.33333 19.4638 10.0357 20.714 11.286C21.9643 12.5362 22.6667 14.2319 22.6667 16C22.6667 16.8533 22.4933 17.68 22.1867 18.4267L26.0933 22.3333C28.0933 20.6667 29.6933 18.48 30.6667 16C28.36 10.1467 22.6667 6 16 6C14.1333 6 12.3467 6.33333 10.6667 6.93333L13.56 9.8C14.32 9.50667 15.1333 9.33333 16 9.33333Z" fill="var(--fill-0, #5A5A5A)"/>
</g>
</svg>
