<svg preserveAspectRatio="none" width="100%" height="100%" overflow="visible" style="display: block;" viewBox="0 0 17 17" fill="none" xmlns="http://www.w3.org/2000/svg">
<g id="Icon">
<path d="M0.900006 2.05201C0.900006 1.64877 0.900006 1.44715 0.978482 1.29313C1.04751 1.15766 1.15766 1.04751 1.29313 0.978482C1.44715 0.900006 1.64877 0.900006 2.05201 0.900006H5.50801C5.91124 0.900006 6.11286 0.900006 6.26688 0.978482C6.40236 1.04751 6.5125 1.15766 6.58153 1.29313C6.66001 1.44715 6.66001 1.64877 6.66001 2.05201V5.50801C6.66001 5.91124 6.66001 6.11286 6.58153 6.26688C6.5125 6.40236 6.40236 6.5125 6.26688 6.58153C6.11286 6.66001 5.91124 6.66001 5.50801 6.66001H2.05201C1.64877 6.66001 1.44715 6.66001 1.29313 6.58153C1.15766 6.5125 1.04751 6.40236 0.978482 6.26688C0.900006 6.11286 0.900006 5.91124 0.900006 5.50801V2.05201Z" fill="var(--fill-0, #06263D)"/>
<path d="M0.900006 10.692C0.900006 10.2888 0.900006 10.0871 0.978482 9.93313C1.04751 9.79766 1.15766 9.68751 1.29313 9.61848C1.44715 9.54001 1.64877 9.54001 2.05201 9.54001H5.50801C5.91124 9.54001 6.11286 9.54001 6.26688 9.61848C6.40236 9.68751 6.5125 9.79766 6.58153 9.93313C6.66001 10.0871 6.66001 10.2888 6.66001 10.692V14.148C6.66001 14.5512 6.66001 14.7529 6.58153 14.9069C6.5125 15.0424 6.40236 15.1525 6.26688 15.2215C6.11286 15.3 5.91124 15.3 5.50801 15.3H2.05201C1.64877 15.3 1.44715 15.3 1.29313 15.2215C1.15766 15.1525 1.04751 15.0424 0.978482 14.9069C0.900006 14.7529 0.900006 14.5512 0.900006 14.148V10.692Z" fill="var(--fill-0, #06263D)"/>
<path d="M9.54001 2.05201C9.54001 1.64877 9.54001 1.44715 9.61848 1.29313C9.68751 1.15766 9.79766 1.04751 9.93313 0.978482C10.0871 0.900006 10.2888 0.900006 10.692 0.900006H14.148C14.5512 0.900006 14.7529 0.900006 14.9069 0.978482C15.0424 1.04751 15.1525 1.15766 15.2215 1.29313C15.3 1.44715 15.3 1.64877 15.3 2.05201V5.50801C15.3 5.91124 15.3 6.11286 15.2215 6.26688C15.1525 6.40236 15.0424 6.5125 14.9069 6.58153C14.7529 6.66001 14.5512 6.66001 14.148 6.66001H10.692C10.2888 6.66001 10.0871 6.66001 9.93313 6.58153C9.79766 6.5125 9.68751 6.40236 9.61848 6.26688C9.54001 6.11286 9.54001 5.91124 9.54001 5.50801V2.05201Z" fill="var(--fill-0, #06263D)"/>
<path d="M9.54001 10.692C9.54001 10.2888 9.54001 10.0871 9.61848 9.93313C9.68751 9.79766 9.79766 9.68751 9.93313 9.61848C10.0871 9.54001 10.2888 9.54001 10.692 9.54001H14.148C14.5512 9.54001 14.7529 9.54001 14.9069 9.61848C15.0424 9.68751 15.1525 9.79766 15.2215 9.93313C15.3 10.0871 15.3 10.2888 15.3 10.692V14.148C15.3 14.5512 15.3 14.7529 15.2215 14.9069C15.1525 15.0424 15.0424 15.1525 14.9069 15.2215C14.7529 15.3 14.5512 15.3 14.148 15.3H10.692C10.2888 15.3 10.0871 15.3 9.93313 15.2215C9.79766 15.1525 9.68751 15.0424 9.61848 14.9069C9.54001 14.7529 9.54001 14.5512 9.54001 14.148V10.692Z" fill="var(--fill-0, #06263D)"/>
<path d="M0.900006 2.05201C0.900006 1.64877 0.900006 1.44715 0.978482 1.29313C1.04751 1.15766 1.15766 1.04751 1.29313 0.978482C1.44715 0.900006 1.64877 0.900006 2.05201 0.900006H5.50801C5.91124 0.900006 6.11286 0.900006 6.26688 0.978482C6.40236 1.04751 6.5125 1.15766 6.58153 1.29313C6.66001 1.44715 6.66001 1.64877 6.66001 2.05201V5.50801C6.66001 5.91124 6.66001 6.11286 6.58153 6.26688C6.5125 6.40236 6.40236 6.5125 6.26688 6.58153C6.11286 6.66001 5.91124 6.66001 5.50801 6.66001H2.05201C1.64877 6.66001 1.44715 6.66001 1.29313 6.58153C1.15766 6.5125 1.04751 6.40236 0.978482 6.26688C0.900006 6.11286 0.900006 5.91124 0.900006 5.50801V2.05201Z" stroke="var(--stroke-0, #06263D)" stroke-width="1.8"/>
<path d="M0.900006 10.692C0.900006 10.2888 0.900006 10.0871 0.978482 9.93313C1.04751 9.79766 1.15766 9.68751 1.29313 9.61848C1.44715 9.54001 1.64877 9.54001 2.05201 9.54001H5.50801C5.91124 9.54001 6.11286 9.54001 6.26688 9.61848C6.40236 9.68751 6.5125 9.79766 6.58153 9.93313C6.66001 10.0871 6.66001 10.2888 6.66001 10.692V14.148C6.66001 14.5512 6.66001 14.7529 6.58153 14.9069C6.5125 15.0424 6.40236 15.1525 6.26688 15.2215C6.11286 15.3 5.91124 15.3 5.50801 15.3H2.05201C1.64877 15.3 1.44715 15.3 1.29313 15.2215C1.15766 15.1525 1.04751 15.0424 0.978482 14.9069C0.900006 14.7529 0.900006 14.5512 0.900006 14.148V10.692Z" stroke="var(--stroke-0, #06263D)" stroke-width="1.8"/>
<path d="M9.54001 2.05201C9.54001 1.64877 9.54001 1.44715 9.61848 1.29313C9.68751 1.15766 9.79766 1.04751 9.93313 0.978482C10.0871 0.900006 10.2888 0.900006 10.692 0.900006H14.148C14.5512 0.900006 14.7529 0.900006 14.9069 0.978482C15.0424 1.04751 15.1525 1.15766 15.2215 1.29313C15.3 1.44715 15.3 1.64877 15.3 2.05201V5.50801C15.3 5.91124 15.3 6.11286 15.2215 6.26688C15.1525 6.40236 15.0424 6.5125 14.9069 6.58153C14.7529 6.66001 14.5512 6.66001 14.148 6.66001H10.692C10.2888 6.66001 10.0871 6.66001 9.93313 6.58153C9.79766 6.5125 9.68751 6.40236 9.61848 6.26688C9.54001 6.11286 9.54001 5.91124 9.54001 5.50801V2.05201Z" stroke="var(--stroke-0, #06263D)" stroke-width="1.8"/>
<path d="M9.54001 10.692C9.54001 10.2888 9.54001 10.0871 9.61848 9.93313C9.68751 9.79766 9.79766 9.68751 9.93313 9.61848C10.0871 9.54001 10.2888 9.54001 10.692 9.54001H14.148C14.5512 9.54001 14.7529 9.54001 14.9069 9.61848C15.0424 9.68751 15.1525 9.79766 15.2215 9.93313C15.3 10.0871 15.3 10.2888 15.3 10.692V14.148C15.3 14.5512 15.3 14.7529 15.2215 14.9069C15.1525 15.0424 15.0424 15.1525 14.9069 15.2215C14.7529 15.3 14.5512 15.3 14.148 15.3H10.692C10.2888 15.3 10.0871 15.3 9.93313 15.2215C9.79766 15.1525 9.68751 15.0424 9.61848 14.9069C9.54001 14.7529 9.54001 14.5512 9.54001 14.148V10.692Z" stroke="var(--stroke-0, #06263D)" stroke-width="1.8"/>
</g>
</svg>
