<svg preserveAspectRatio="none" width="100%" height="100%" overflow="visible" style="display: block;" viewBox="0 0 16 16" fill="none" xmlns="http://www.w3.org/2000/svg">
<g id="wpf:future" clip-path="url(#clip0_2014_8676)">
<path id="Vector" d="M8 -2.98023e-07V1.23077C4.28 1.23077 1.23077 4.28 1.23077 8C1.23077 11.72 4.28 14.7692 8 14.7692C11.72 14.7692 14.7692 11.72 14.7692 8C14.7692 6.18646 14.0862 4.54769 12.8652 3.32677L12 4.19262C12.9951 5.18646 13.5385 6.48985 13.5385 8C13.5385 11.0492 11.0492 13.5385 8 13.5385C4.95077 13.5385 2.46154 11.0492 2.46154 8C2.46154 4.95077 4.95077 2.46154 8 2.46154V3.69231L11.0769 1.84615L8 -2.98023e-07ZM9.28862 4.03877L7.75015 7.11569C7.55607 7.16812 7.38479 7.28329 7.26302 7.44325C7.14124 7.60321 7.07581 7.79896 7.07692 8C7.07692 8.24482 7.17418 8.4796 7.34729 8.65271C7.5204 8.82582 7.75518 8.92308 8 8.92308H8.03877L10.0191 10.904L10.904 10.0191L8.92308 8.03877V8C8.92308 7.87877 8.88862 7.76 8.84615 7.65354L10.4037 4.57662L9.28862 4.03815V4.03877Z" fill="var(--fill-0, #4E84B4)"/>
</g>
<defs>
<clipPath id="clip0_2014_8676">
<rect width="16" height="16" fill="white"/>
</clipPath>
</defs>
</svg>
