<svg preserveAspectRatio="none" width="100%" height="100%" overflow="visible" style="display: block;" viewBox="0 0 28 24" fill="none" xmlns="http://www.w3.org/2000/svg">
<g id="Group">
<path id="Vector" d="M22.9091 15V3C22.9091 1.35 21.7636 0 20.3636 0H2.54545C1.14545 0 0 1.35 0 3V15C0 16.65 1.14545 18 2.54545 18H20.3636C21.7636 18 22.9091 16.65 22.9091 15ZM20.3636 15H2.54545V3H20.3636V15ZM11.4545 4.5C9.34182 4.5 7.63636 6.51 7.63636 9C7.63636 11.49 9.34182 13.5 11.4545 13.5C13.5673 13.5 15.2727 11.49 15.2727 9C15.2727 6.51 13.5673 4.5 11.4545 4.5ZM28 4.5V21C28 22.65 26.8545 24 25.4545 24H3.81818C3.81818 22.5 3.81818 22.65 3.81818 21H25.4545V4.5C26.8545 4.5 26.7273 4.5 28 4.5Z" fill="var(--fill-0, white)"/>
</g>
</svg>
