<svg preserveAspectRatio="none" width="100%" height="100%" overflow="visible" style="display: block;" viewBox="0 0 28 24" fill="none" xmlns="http://www.w3.org/2000/svg">
<g id="Group">
<path id="Vector" d="M19.9433 13.6946C21.687 15.0896 22.9088 16.9795 22.9088 19.4995V23.9994H27.9997V19.4995C27.9997 16.2295 23.4561 14.2946 19.9433 13.6946Z" fill="var(--fill-0, white)"/>
<path id="Vector_2" d="M17.8182 11.9998C20.6309 11.9998 22.9091 9.31482 22.9091 5.99989C22.9091 2.68495 20.6309 0 17.8182 0C17.22 0 16.66 0.149997 16.1255 0.359993C17.1818 1.90496 17.8182 3.86993 17.8182 5.99989C17.8182 8.12985 17.1818 10.0948 16.1255 11.6398C16.66 11.8498 17.22 11.9998 17.8182 11.9998Z" fill="var(--fill-0, white)"/>
<path id="Vector_3" d="M10.182 11.9998C12.9947 11.9998 15.2729 9.31482 15.2729 5.99989C15.2729 2.68495 12.9947 0 10.182 0C7.36925 0 5.09106 2.68495 5.09106 5.99989C5.09106 9.31482 7.36925 11.9998 10.182 11.9998ZM10.182 2.99994C11.582 2.99994 12.7274 4.34992 12.7274 5.99989C12.7274 7.64986 11.582 8.99983 10.182 8.99983C8.78198 8.99983 7.63652 7.64986 7.63652 5.99989C7.63652 4.34992 8.78198 2.99994 10.182 2.99994Z" fill="var(--fill-0, white)"/>
<path id="Vector_4" d="M10.1817 13.5002C6.78352 13.5002 -0.00012207 15.5102 -0.00012207 19.5001V24H20.3635V19.5001C20.3635 15.5102 13.5799 13.5002 10.1817 13.5002ZM17.8181 21.0001H2.54534V19.5151C2.79988 18.4351 6.74534 16.5001 10.1817 16.5001C13.6181 16.5001 17.5635 18.4351 17.8181 19.5001V21.0001Z" fill="var(--fill-0, white)"/>
</g>
</svg>
