<svg preserveAspectRatio="none" width="100%" height="100%" overflow="visible" style="display: block;" viewBox="0 0 16 16" fill="none" xmlns="http://www.w3.org/2000/svg">
<g id="carbon:in-progress">
<path id="Vector" d="M8 1C6.61553 1 5.26215 1.41054 4.11101 2.17971C2.95986 2.94888 2.06266 4.04213 1.53284 5.32122C1.00303 6.6003 0.864406 8.00777 1.1345 9.36563C1.4046 10.7235 2.07128 11.9708 3.05025 12.9497C4.02922 13.9287 5.2765 14.5954 6.63437 14.8655C7.99224 15.1356 9.3997 14.997 10.6788 14.4672C11.9579 13.9373 13.0511 13.0401 13.8203 11.889C14.5895 10.7378 15 9.38447 15 8C14.9979 6.14413 14.2597 4.36489 12.9474 3.05259C11.6351 1.7403 9.85587 1.00212 8 1ZM8 14C6.4087 14 4.88258 13.3679 3.75736 12.2426C2.63214 11.1174 2 9.5913 2 8C2 6.4087 2.63214 4.88258 3.75736 3.75736C4.88258 2.63214 6.4087 2 8 2V8L12.2405 12.2405C11.6844 12.7987 11.0236 13.2415 10.2958 13.5434C9.5681 13.8454 8.78788 14.0005 8 14Z" fill="var(--fill-0, #F59F0A)"/>
</g>
</svg>
