<svg preserveAspectRatio="none" width="100%" height="100%" overflow="visible" style="display: block;" viewBox="0 0 13 13" fill="none" xmlns="http://www.w3.org/2000/svg">
<g id="mdi:bug-outline">
<path id="Vector" d="M10.6661 4.26823H9.16748C8.92748 3.84156 8.59681 3.46823 8.19681 3.20156L9.06615 2.35356L8.31415 1.60156L7.15681 2.7589C6.6609 2.63855 6.14339 2.63855 5.64748 2.7589L4.48481 1.60156L3.73281 2.35356L4.59681 3.20156C4.19681 3.46823 3.87148 3.8469 3.63148 4.26823H2.13281V5.3349H3.24748C3.21548 5.5109 3.19948 5.6869 3.19948 5.86823V6.40156H2.13281V7.46823H3.19948V8.00156C3.19948 8.1829 3.21548 8.3589 3.24748 8.5349H2.13281V9.60156H3.63148C3.8418 9.96486 4.12166 10.2831 4.45506 10.5382C4.78846 10.7933 5.16886 10.9802 5.57452 11.0881C5.98018 11.1961 6.40315 11.2231 6.81924 11.1675C7.23533 11.1119 7.63638 10.9749 7.99948 10.7642C8.48481 10.4869 8.89015 10.0816 9.16748 9.60156H10.6661V8.5349H9.55148C9.58348 8.3589 9.59948 8.1829 9.59948 8.00156V7.46823H10.6661V6.40156H9.59948V5.86823C9.59948 5.6869 9.58348 5.5109 9.55148 5.3349H10.6661V4.26823ZM8.53281 8.00156C8.53281 8.56736 8.30805 9.10998 7.90797 9.51006C7.5079 9.91013 6.96527 10.1349 6.39948 10.1349C5.83368 10.1349 5.29106 9.91013 4.89098 9.51006C4.49091 9.10998 4.26615 8.56736 4.26615 8.00156V5.86823C4.26615 5.30243 4.49091 4.75981 4.89098 4.35973C5.29106 3.95966 5.83368 3.7349 6.39948 3.7349C6.96527 3.7349 7.5079 3.95966 7.90797 4.35973C8.30805 4.75981 8.53281 5.30243 8.53281 5.86823V8.00156ZM7.46615 5.3349V6.40156H5.33281V5.3349H7.46615ZM5.33281 7.46823H7.46615V8.5349H5.33281V7.46823Z" fill="var(--fill-0, white)"/>
</g>
</svg>
