<svg preserveAspectRatio="none" width="100%" height="100%" overflow="visible" style="display: block;" viewBox="0 0 14 14" fill="none" xmlns="http://www.w3.org/2000/svg">
<g id="fluent:attach-28-regular">
<path id="Vector" d="M11.2275 2.51844C10.7343 2.02549 10.0655 1.74858 9.36823 1.74858C8.67093 1.74858 8.00217 2.02549 7.50898 2.51844L1.63748 8.38744C1.56639 8.45368 1.47237 8.48975 1.37522 8.48803C1.27807 8.48632 1.18538 8.44696 1.11667 8.37825C1.04796 8.30955 1.00861 8.21686 1.00689 8.11971C1.00518 8.02255 1.04124 7.92853 1.10748 7.85744L6.97748 1.98744C7.61155 1.35371 8.4714 0.997813 9.36787 0.998047C10.2643 0.998281 11.124 1.35463 11.7577 1.98869C12.3915 2.62276 12.7474 3.48261 12.7471 4.37908C12.7469 5.27555 12.3905 6.13521 11.7565 6.76894L6.09648 12.4239C5.72767 12.7902 5.22874 12.9953 4.70898 12.9943C4.18923 12.9934 3.69105 12.7864 3.3236 12.4188C2.95614 12.0512 2.74938 11.553 2.74861 11.0332C2.74784 10.5135 2.95312 10.0146 3.31948 9.64594L8.85798 4.10744C8.89231 4.0706 8.93371 4.04105 8.97971 4.02055C9.02571 4.00006 9.07537 3.98904 9.12572 3.98815C9.17607 3.98726 9.22609 3.99652 9.27278 4.01538C9.31948 4.03424 9.36189 4.06232 9.3975 4.09793C9.43311 4.13353 9.46118 4.17595 9.48004 4.22265C9.4989 4.26934 9.50817 4.31935 9.50728 4.36971C9.50639 4.42006 9.49537 4.46971 9.47487 4.51571C9.45438 4.56171 9.42483 4.60311 9.38798 4.63744L3.85098 10.1764C3.62744 10.4049 3.50303 10.7123 3.50476 11.032C3.50648 11.3516 3.6342 11.6577 3.86019 11.8837C4.08618 12.1098 4.3922 12.2376 4.71184 12.2394C5.03148 12.2412 5.33894 12.1169 5.56748 11.8934L11.2275 6.23844C11.4718 5.99425 11.6657 5.70431 11.7979 5.38518C11.9302 5.06605 11.9983 4.724 11.9984 4.37855C11.9984 4.0331 11.9304 3.69102 11.7982 3.37186C11.666 3.0527 11.4723 2.76271 11.228 2.51844" fill="var(--fill-0, #06263D)"/>
</g>
</svg>
