<svg preserveAspectRatio="none" width="100%" height="100%" overflow="visible" style="display: block;" viewBox="0 0 40 62" fill="none" xmlns="http://www.w3.org/2000/svg">
<g id="Group">
<path id="Vector" d="M6.99367e-07 14.0274C6.99367e-07 10.3071 0.766227 6.73918 2.13013 4.10853C3.49403 1.47788 5.34388 -8.30569e-07 7.27273 -8.30569e-07H32.7273C34.6561 -8.30569e-07 36.506 1.47788 37.8699 4.10853C39.2338 6.73918 40 10.3071 40 14.0274V47.9726C40 51.6929 39.2338 55.2608 37.8699 57.8915C36.506 60.5221 34.6561 62 32.7273 62H7.27273C5.34388 62 3.49403 60.5221 2.13013 57.8915C0.766227 55.2608 6.99367e-07 51.6929 6.99367e-07 47.9726L6.99367e-07 14.0274Z" fill="var(--fill-0, #67909B)"/>
</g>
</svg>
