<svg preserveAspectRatio="none" width="100%" height="100%" overflow="visible" style="display: block;" viewBox="0 0 32 32" fill="none" xmlns="http://www.w3.org/2000/svg">
<g id="Frame 1116606892">
<circle id="Ellipse 218" cx="16" cy="16" r="16" fill="var(--fill-0, #222222)"/>
<g id="uil:analysis">
<path id="Vector" d="M22.4733 12.86C22.4114 12.7975 22.3376 12.7479 22.2564 12.7141C22.1751 12.6802 22.088 12.6628 22 12.6628C21.912 12.6628 21.8249 12.6802 21.7436 12.7141C21.6624 12.7479 21.5886 12.7975 21.5267 12.86L17.3333 17.06L14.4733 14.1933C14.4114 14.1308 14.3376 14.0813 14.2564 14.0474C14.1751 14.0136 14.088 13.9961 14 13.9961C13.912 13.9961 13.8249 14.0136 13.7436 14.0474C13.6624 14.0813 13.5886 14.1308 13.5267 14.1933L9.52667 18.1933C9.46418 18.2553 9.41458 18.329 9.38074 18.4103C9.34689 18.4915 9.32947 18.5787 9.32947 18.6667C9.32947 18.7547 9.34689 18.8418 9.38074 18.9231C9.41458 19.0043 9.46418 19.078 9.52667 19.14C9.58864 19.2025 9.66238 19.2521 9.74362 19.2859C9.82486 19.3198 9.91199 19.3372 10 19.3372C10.088 19.3372 10.1751 19.3198 10.2564 19.2859C10.3376 19.2521 10.4114 19.2025 10.4733 19.14L14 15.6067L16.86 18.4733C16.922 18.5358 16.9957 18.5854 17.0769 18.6193C17.1582 18.6531 17.2453 18.6705 17.3333 18.6705C17.4213 18.6705 17.5085 18.6531 17.5897 18.6193C17.671 18.5854 17.7447 18.5358 17.8067 18.4733L22.4733 13.8067C22.5358 13.7447 22.5854 13.671 22.6193 13.5897C22.6531 13.5085 22.6705 13.4213 22.6705 13.3333C22.6705 13.2453 22.6531 13.1582 22.6193 13.0769C22.5854 12.9957 22.5358 12.922 22.4733 12.86Z" fill="var(--fill-0, white)"/>
</g>
</g>
</svg>
