<svg width="21" height="22" viewBox="0 0 21 22" fill="none" xmlns="http://www.w3.org/2000/svg">
<path fill-rule="evenodd" clip-rule="evenodd" d="M12.7511 0.914C12.1908 1.68512 11.851 2.59423 11.7682 3.5438C11.6854 4.49337 11.8627 5.44758 12.281 6.30406C12.6993 7.16054 13.3429 7.88697 14.1427 8.40543C14.9426 8.92389 15.8685 9.21482 16.8211 9.247V9.258C16.8361 9.456 16.8511 9.659 16.8711 9.855C17.1081 12.102 17.6481 13.645 18.1671 14.658C18.5121 15.333 18.8511 15.781 19.0911 16.052C19.1965 16.1715 19.3101 16.2834 19.4311 16.387L19.4411 16.393C19.5694 16.4861 19.6649 16.6175 19.7139 16.7683C19.7629 16.9191 19.7628 17.0815 19.7137 17.2323C19.6646 17.383 19.569 17.5143 19.4406 17.6074C19.3122 17.7004 19.1577 17.7503 18.9991 17.75H0.999114C0.840916 17.7498 0.686828 17.6996 0.558885 17.6066C0.430943 17.5135 0.335698 17.3824 0.286771 17.232C0.237844 17.0815 0.237741 16.9195 0.286476 16.769C0.335212 16.6184 0.43029 16.4872 0.558114 16.394L0.566114 16.387L0.630114 16.333C0.690114 16.279 0.787114 16.188 0.907114 16.052C1.14711 15.782 1.48611 15.334 1.83111 14.659C2.52111 13.31 3.24911 11.03 3.24911 7.4C3.24911 5.519 3.94911 3.706 5.20911 2.362C6.47111 1.016 8.19311 0.25 9.99911 0.25C10.3818 0.25 10.7594 0.283667 11.1321 0.351C11.3701 0.394 12.1501 0.637 12.7511 0.914Z" fill="#06263D"/>
<path fill-rule="evenodd" clip-rule="evenodd" d="M13.25 4C13.25 3.00544 13.6451 2.05161 14.3484 1.34835C15.0516 0.645088 16.0055 0.25 17 0.25C17.9946 0.25 18.9484 0.645088 19.6517 1.34835C20.3549 2.05161 20.75 3.00544 20.75 4C20.75 4.99456 20.3549 5.94839 19.6517 6.65165C18.9484 7.35491 17.9946 7.75 17 7.75C16.0055 7.75 15.0516 7.35491 14.3484 6.65165C13.6451 5.94839 13.25 4.99456 13.25 4ZM7.89404 19.351C7.97926 19.3016 8.07338 19.2695 8.17102 19.2565C8.26866 19.2435 8.3679 19.2498 8.46308 19.2752C8.55826 19.3005 8.64752 19.3444 8.72575 19.4042C8.80399 19.4641 8.86966 19.5388 8.91904 19.624C9.02895 19.8133 9.18665 19.9704 9.37636 20.0796C9.56607 20.1889 9.78113 20.2464 10 20.2464C10.2189 20.2464 10.434 20.1889 10.6237 20.0796C10.8134 19.9704 10.9711 19.8133 11.081 19.624C11.1305 19.5388 11.1962 19.4641 11.2745 19.4043C11.3528 19.3445 11.4421 19.3007 11.5373 19.2754C11.6326 19.2501 11.7319 19.2438 11.8295 19.2568C11.9272 19.2699 12.0213 19.3021 12.1065 19.3515C12.1918 19.4009 12.2664 19.4667 12.3262 19.545C12.3861 19.6233 12.4299 19.7126 12.4552 19.8078C12.4805 19.903 12.4868 20.0023 12.4737 20.1C12.4607 20.1976 12.4285 20.2918 12.379 20.377C12.1373 20.7938 11.7903 21.1399 11.3728 21.3804C10.9553 21.6209 10.4819 21.7476 10 21.7476C9.51818 21.7476 9.04478 21.6209 8.62726 21.3804C8.20973 21.1399 7.86274 20.7938 7.62104 20.377C7.5715 20.2917 7.53926 20.1975 7.52617 20.0998C7.51308 20.002 7.51939 19.9027 7.54475 19.8074C7.57011 19.7121 7.61401 19.6227 7.67394 19.5444C7.73388 19.4661 7.80867 19.4004 7.89404 19.351Z" fill="#06263D"/>
</svg>
