<svg preserveAspectRatio="none" width="100%" height="100%" overflow="visible" style="display: block;" viewBox="0 0 40 188" fill="none" xmlns="http://www.w3.org/2000/svg">
<g id="Group">
<path id="Vector" d="M-6.99947e-09 10.1804C-6.99947e-09 7.48041 0.766233 4.89098 2.13013 2.98178C3.49404 1.07258 5.34388 6.02086e-09 7.27273 6.02085e-09L32.7273 6.02085e-09C34.6561 6.02086e-09 36.506 1.07258 37.8699 2.98178C39.2338 4.89098 40 7.48041 40 10.1804V177.82C40 180.52 39.2338 183.109 37.8699 185.018C36.506 186.927 34.6561 188 32.7273 188H7.27273C5.34388 188 3.49404 186.927 2.13013 185.018C0.766233 183.109 -6.99947e-09 180.52 -6.99947e-09 177.82L-6.99947e-09 10.1804Z" fill="var(--fill-0, #67909B)"/>
</g>
</svg>
