<svg preserveAspectRatio="none" width="100%" height="100%" overflow="visible" style="display: block;" viewBox="0 0 13 13" fill="none" xmlns="http://www.w3.org/2000/svg">
<g id="mdi:bug-outline">
<path id="Vector" d="M10.6658 4.26745H9.16709C8.92709 3.84078 8.59642 3.46745 8.19642 3.20078L9.06576 2.35278L8.31376 1.60078L7.15642 2.75811C6.66051 2.63777 6.143 2.63777 5.64709 2.75811L4.48442 1.60078L3.73242 2.35278L4.59642 3.20078C4.19642 3.46745 3.87109 3.84611 3.63109 4.26745H2.13242V5.33411H3.24709C3.21509 5.51011 3.19909 5.68611 3.19909 5.86745V6.40078H2.13242V7.46745H3.19909V8.00078C3.19909 8.18211 3.21509 8.35811 3.24709 8.53411H2.13242V9.60078H3.63109C3.84141 9.96408 4.12127 10.2824 4.45467 10.5374C4.78807 10.7925 5.16847 10.9794 5.57413 11.0874C5.97979 11.1953 6.40276 11.2223 6.81885 11.1667C7.23494 11.1112 7.63599 10.9741 7.99909 10.7634C8.48442 10.4861 8.88976 10.0808 9.16709 9.60078H10.6658V8.53411H9.55109C9.58309 8.35811 9.59909 8.18211 9.59909 8.00078V7.46745H10.6658V6.40078H9.59909V5.86745C9.59909 5.68611 9.58309 5.51011 9.55109 5.33411H10.6658V4.26745ZM8.53242 8.00078C8.53242 8.56658 8.30766 9.1092 7.90758 9.50928C7.50751 9.90935 6.96488 10.1341 6.39909 10.1341C5.83329 10.1341 5.29067 9.90935 4.89059 9.50928C4.49052 9.1092 4.26576 8.56658 4.26576 8.00078V5.86745C4.26576 5.30165 4.49052 4.75903 4.89059 4.35895C5.29067 3.95888 5.83329 3.73411 6.39909 3.73411C6.96488 3.73411 7.50751 3.95888 7.90758 4.35895C8.30766 4.75903 8.53242 5.30165 8.53242 5.86745V8.00078ZM7.46576 5.33411V6.40078H5.33242V5.33411H7.46576ZM5.33242 7.46745H7.46576V8.53411H5.33242V7.46745Z" fill="var(--fill-0, white)"/>
</g>
</svg>
