<svg preserveAspectRatio="none" width="100%" height="100%" overflow="visible" style="display: block;" viewBox="0 0 40 40" fill="none" xmlns="http://www.w3.org/2000/svg">
<g id="Frame 1116606857">
<path id="Vector" d="M29.1688 21.176C29.2182 20.792 29.2552 20.408 29.2552 20C29.2552 19.592 29.2182 19.208 29.1688 18.824L31.7719 16.844C32.0063 16.664 32.068 16.34 31.9199 16.076L29.4526 11.924C29.3416 11.732 29.1318 11.624 28.9098 11.624C28.8358 11.624 28.7617 11.636 28.7001 11.66L25.6282 12.86C24.9867 12.38 24.2959 11.984 23.5433 11.684L23.0745 8.504C23.0375 8.216 22.7785 8 22.4701 8H17.5354C17.227 8 16.9679 8.216 16.9309 8.504L16.4621 11.684C15.7096 11.984 15.0187 12.392 14.3772 12.86L11.3054 11.66C11.2314 11.636 11.1574 11.624 11.0833 11.624C10.8736 11.624 10.6639 11.732 10.5529 11.924L8.08553 16.076C7.92516 16.34 7.99918 16.664 8.23357 16.844L10.8366 18.824C10.7873 19.208 10.7502 19.604 10.7502 20C10.7502 20.396 10.7873 20.792 10.8366 21.176L8.23357 23.156C7.99918 23.336 7.93749 23.66 8.08553 23.924L10.5529 28.076C10.6639 28.268 10.8736 28.376 11.0957 28.376C11.1697 28.376 11.2437 28.364 11.3054 28.34L14.3772 27.14C15.0187 27.62 15.7096 28.016 16.4621 28.316L16.9309 31.496C16.9679 31.784 17.227 32 17.5354 32H22.4701C22.7785 32 23.0375 31.784 23.0745 31.496L23.5433 28.316C24.2959 28.016 24.9867 27.608 25.6282 27.14L28.7001 28.34C28.7741 28.364 28.8481 28.376 28.9221 28.376C29.1318 28.376 29.3416 28.268 29.4526 28.076L31.9199 23.924C32.068 23.66 32.0063 23.336 31.7719 23.156L29.1688 21.176V21.176ZM26.7262 19.124C26.7755 19.496 26.7879 19.748 26.7879 20C26.7879 20.252 26.7632 20.516 26.7262 20.876L26.5535 22.232L27.6514 23.072L28.9838 24.08L28.1202 25.532L26.5535 24.92L25.2705 24.416L24.1602 25.232C23.6297 25.616 23.1239 25.904 22.6181 26.108L21.3104 26.624L21.113 27.98L20.8663 29.6H19.1392L18.9048 27.98L18.7074 26.624L17.3997 26.108C16.8692 25.892 16.3758 25.616 15.8823 25.256L14.7597 24.416L13.452 24.932L11.8852 25.544L11.0217 24.092L12.354 23.084L13.452 22.244L13.2793 20.888C13.2422 20.516 13.2176 20.24 13.2176 20C13.2176 19.76 13.2422 19.484 13.2793 19.124L13.452 17.768L12.354 16.928L11.0217 15.92L11.8852 14.468L13.452 15.08L14.735 15.584L15.8453 14.768C16.3758 14.384 16.8816 14.096 17.3874 13.892L18.695 13.376L18.8924 12.02L19.1392 10.4H20.854L21.0883 12.02L21.2857 13.376L22.5934 13.892C23.1239 14.108 23.6174 14.384 24.1108 14.744L25.2335 15.584L26.5411 15.068L28.1079 14.456L28.9715 15.908L27.6514 16.928L26.5535 17.768L26.7262 19.124ZM20.0027 15.2C17.2763 15.2 15.0681 17.348 15.0681 20C15.0681 22.652 17.2763 24.8 20.0027 24.8C22.7291 24.8 24.9374 22.652 24.9374 20C24.9374 17.348 22.7291 15.2 20.0027 15.2ZM20.0027 22.4C18.6457 22.4 17.5354 21.32 17.5354 20C17.5354 18.68 18.6457 17.6 20.0027 17.6C21.3598 17.6 22.4701 18.68 22.4701 20C22.4701 21.32 21.3598 22.4 20.0027 22.4Z" fill="var(--fill-0, white)"/>
</g>
</svg>
