<svg preserveAspectRatio="none" width="100%" height="100%" overflow="visible" style="display: block;" viewBox="0 0 24 24" fill="none" xmlns="http://www.w3.org/2000/svg">
<g id="fluent:people-team-16-regular">
<path id="Vector" d="M9.003 6C9.003 5.20515 9.31875 4.44285 9.8808 3.8808C10.4428 3.31875 11.2051 3.003 12 3.003C12.7949 3.003 13.5572 3.31875 14.1192 3.8808C14.6812 4.44285 14.997 5.20515 14.997 6C14.997 6.79485 14.6812 7.55715 14.1192 8.1192C13.5572 8.68125 12.7949 8.997 12 8.997C11.2051 8.997 10.4428 8.68125 9.8808 8.1192C9.31875 7.55715 9.003 6.79485 9.003 6ZM12 4.503C11.8034 4.503 11.6087 4.54172 11.4271 4.61695C11.2455 4.69218 11.0805 4.80245 10.9415 4.94146C10.8025 5.08047 10.6922 5.2455 10.617 5.42712C10.5417 5.60875 10.503 5.80341 10.503 6C10.503 6.19659 10.5417 6.39125 10.617 6.57288C10.6922 6.7545 10.8025 6.91953 10.9415 7.05854C11.0805 7.19755 11.2455 7.30782 11.4271 7.38305C11.6087 7.45828 11.8034 7.497 12 7.497C12.397 7.497 12.7778 7.33928 13.0585 7.05854C13.3393 6.7778 13.497 6.39703 13.497 6C13.497 5.60297 13.3393 5.2222 13.0585 4.94146C12.7778 4.66072 12.397 4.503 12 4.503ZM16.5 6.75C16.5 6.45453 16.5582 6.16194 16.6713 5.88896C16.7843 5.61598 16.9501 5.36794 17.159 5.15901C17.3679 4.95008 17.616 4.78434 17.889 4.67127C18.1619 4.5582 18.4545 4.5 18.75 4.5C19.0455 4.5 19.3381 4.5582 19.611 4.67127C19.884 4.78434 20.1321 4.95008 20.341 5.15901C20.5499 5.36794 20.7157 5.61598 20.8287 5.88896C20.9418 6.16194 21 6.45453 21 6.75C21 7.34674 20.7629 7.91903 20.341 8.34099C19.919 8.76295 19.3467 9 18.75 9C18.1533 9 17.581 8.76295 17.159 8.34099C16.7371 7.91903 16.5 7.34674 16.5 6.75ZM18.75 6C18.5511 6 18.3603 6.07902 18.2197 6.21967C18.079 6.36032 18 6.55109 18 6.75C18 6.94891 18.079 7.13968 18.2197 7.28033C18.3603 7.42098 18.5511 7.5 18.75 7.5C18.9489 7.5 19.1397 7.42098 19.2803 7.28033C19.421 7.13968 19.5 6.94891 19.5 6.75C19.5 6.55109 19.421 6.36032 19.2803 6.21967C19.1397 6.07902 18.9489 6 18.75 6ZM5.25 4.5C4.65326 4.5 4.08097 4.73705 3.65901 5.15901C3.23705 5.58097 3 6.15326 3 6.75C3 7.34674 3.23705 7.91903 3.65901 8.34099C4.08097 8.76295 4.65326 9 5.25 9C5.84674 9 6.41903 8.76295 6.84099 8.34099C7.26295 7.91903 7.5 7.34674 7.5 6.75C7.5 6.15326 7.26295 5.58097 6.84099 5.15901C6.41903 4.73705 5.84674 4.5 5.25 4.5ZM4.5 6.75C4.5 6.55109 4.57902 6.36032 4.71967 6.21967C4.86032 6.07902 5.05109 6 5.25 6C5.44891 6 5.63968 6.07902 5.78033 6.21967C5.92098 6.36032 6 6.55109 6 6.75C6 6.94891 5.92098 7.13968 5.78033 7.28033C5.63968 7.42098 5.44891 7.5 5.25 7.5C5.05109 7.5 4.86032 7.42098 4.71967 7.28033C4.57902 7.13968 4.5 6.94891 4.5 6.75ZM6.402 10.5C6.13867 10.9561 6.00002 11.4734 6 12H3V15.75C2.99988 16.1231 3.09254 16.4904 3.26965 16.8188C3.44676 17.1472 3.70275 17.4264 4.01458 17.6312C4.32641 17.8361 4.6843 17.9602 5.05601 17.9924C5.42773 18.0245 5.80161 17.9637 6.144 17.8155C6.255 18.312 6.429 18.786 6.654 19.2285C6.0847 19.4584 5.46766 19.5449 4.85708 19.4806C4.24651 19.4163 3.66106 19.203 3.15216 18.8596C2.64326 18.5161 2.22648 18.0529 1.93841 17.5108C1.65034 16.9686 1.4998 16.364 1.5 15.75V12C1.5 11.6022 1.65804 11.2206 1.93934 10.9393C2.22064 10.658 2.60218 10.5 3 10.5H6.402ZM17.346 19.2285C17.9153 19.4584 18.5323 19.5449 19.1429 19.4806C19.7535 19.4163 20.3389 19.203 20.8478 18.8596C21.3567 18.5161 21.7735 18.0529 22.0616 17.5108C22.3497 16.9686 22.5002 16.364 22.5 15.75V12C22.5 11.6022 22.342 11.2206 22.0607 10.9393C21.7794 10.658 21.3978 10.5 21 10.5H17.598C17.853 10.941 18 11.4525 18 12H21V15.75C21.0001 16.1231 20.9075 16.4904 20.7303 16.8188C20.5532 17.1472 20.2972 17.4264 19.9854 17.6312C19.6736 17.8361 19.3157 17.9602 18.944 17.9924C18.5723 18.0245 18.1984 17.9637 17.856 17.8155C17.742 18.3135 17.572 18.7845 17.346 19.2285ZM9 10.4985C8.60218 10.4985 8.22064 10.6565 7.93934 10.9378C7.65804 11.2191 7.5 11.6007 7.5 11.9985V16.5C7.5 17.6935 7.97411 18.8381 8.81802 19.682C9.66193 20.5259 10.8065 21 12 21C13.1935 21 14.3381 20.5259 15.182 19.682C16.0259 18.8381 16.5 17.6935 16.5 16.5V12C16.5 11.6022 16.342 11.2206 16.0607 10.9393C15.7794 10.658 15.3978 10.5 15 10.5L9 10.4985ZM9 11.9985H15V16.5C15 17.2956 14.6839 18.0587 14.1213 18.6213C13.5587 19.1839 12.7956 19.5 12 19.5C11.2044 19.5 10.4413 19.1839 9.87868 18.6213C9.31607 18.0587 9 17.2956 9 16.5V11.9985Z" fill="var(--fill-0, #06263D)"/>
</g>
</svg>
