<svg preserveAspectRatio="none" width="100%" height="100%" overflow="visible" style="display: block;" viewBox="0 0 124 192" fill="none" xmlns="http://www.w3.org/2000/svg">
<path id="Inner Gauge" d="M0.701295 9.75563C-0.162896 5.53538 2.55688 1.38273 6.83001 0.837116C28.6234 -1.94555 50.8151 2.24046 70.1761 12.9047C91.8219 24.8274 108.515 44.0683 117.264 67.1798C126.013 90.2914 126.246 115.763 117.922 139.031C110.477 159.843 96.6206 177.676 78.4478 190.022C74.8846 192.443 70.0967 191.133 67.9495 187.398V187.398C65.8024 183.664 67.1129 178.923 70.6438 176.455C85.6172 165.99 97.0377 151.097 103.234 133.777C110.309 113.999 110.111 92.3477 102.674 72.7029C95.2376 53.058 81.0486 36.7033 62.6497 26.569C46.5366 17.6937 28.1168 14.0973 9.96673 16.1711C5.68676 16.6601 1.56549 13.9759 0.701295 9.75563V9.75563Z" fill="var(--fill-0, #2A9D90)"/>
</svg>
