<svg width="16" height="16" viewBox="0 0 16 16" fill="none" xmlns="http://www.w3.org/2000/svg">
<path d="M5.32946 10.6666H7.99613M5.32946 7.33325H10.6628M4.99746 2.33325C3.96012 2.36459 3.34213 2.47992 2.91412 2.90792C2.32812 3.49459 2.32813 4.43792 2.32813 6.32525V10.6626C2.32813 12.5506 2.32812 13.4939 2.91412 14.0806C3.49946 14.6666 4.44279 14.6666 6.32813 14.6666H9.66146C11.5475 14.6666 12.4901 14.6666 13.0755 14.0799C13.6621 13.4939 13.6621 12.5506 13.6621 10.6626V6.32525C13.6621 4.43859 13.6621 3.49459 13.0755 2.90792C12.6481 2.47992 12.0295 2.36459 10.9921 2.33325" stroke="white" stroke-width="1.5" stroke-linecap="round" stroke-linejoin="round"/>
<path d="M4.99219 2.49992C4.99219 1.85592 5.51485 1.33325 6.15885 1.33325H9.82552C10.1349 1.33325 10.4317 1.45617 10.6505 1.67496C10.8693 1.89375 10.9922 2.1905 10.9922 2.49992C10.9922 2.80934 10.8693 3.10608 10.6505 3.32488C10.4317 3.54367 10.1349 3.66659 9.82552 3.66659H6.15885C5.84944 3.66659 5.55269 3.54367 5.3339 3.32488C5.1151 3.10608 4.99219 2.80934 4.99219 2.49992Z" stroke="white" stroke-width="1.5" stroke-linecap="round" stroke-linejoin="round"/>
</svg>
