<svg width="16" height="16" viewBox="0 0 16 16" fill="none" xmlns="http://www.w3.org/2000/svg">
<path d="M13.3707 6.482C14.0027 6.126 14.3194 5.948 14.492 5.66067C14.6654 5.374 14.6654 5.028 14.6654 4.336V3.876C14.6654 2.992 14.6654 2.54933 14.372 2.27467C14.08 2 13.6087 2 12.6654 2H3.33203C2.38936 2 1.91803 2 1.62536 2.27467C1.3327 2.54933 1.33203 2.992 1.33203 3.87667V4.33667C1.33203 5.028 1.33203 5.374 1.50536 5.66067C1.6787 5.94733 1.99403 6.126 2.6267 6.482L4.5687 7.57533C4.9927 7.814 5.20536 7.93333 5.35736 8.06533C5.67336 8.33933 5.86803 8.662 5.95603 9.05867C5.9987 9.248 5.9987 9.47067 5.9987 9.91533V11.6953C5.9987 12.3013 5.9987 12.6047 6.1667 12.8407C6.3347 13.0773 6.63336 13.194 7.22936 13.4273C8.48203 13.9167 9.10803 14.1613 9.55336 13.8827C9.9987 13.604 9.9987 12.968 9.9987 11.6947V9.91467C9.9987 9.47067 9.9987 9.248 10.0414 9.058C10.1251 8.66944 10.336 8.31989 10.6407 8.06467" stroke="white" stroke-linecap="round"/>
</svg>
