<svg preserveAspectRatio="none" width="100%" height="100%" overflow="visible" style="display: block;" viewBox="0 0 12 12" fill="none" xmlns="http://www.w3.org/2000/svg">
<g id="Icon">
<path id="Vector" d="M2 10H10C10.2652 10 10.5196 9.89464 10.7071 9.70711C10.8946 9.51957 11 9.26522 11 9V4C11 3.73478 10.8946 3.48043 10.7071 3.29289C10.5196 3.10536 10.2652 3 10 3H6.035C5.87029 2.99915 5.70835 2.95762 5.56355 2.87912C5.41875 2.80062 5.29559 2.68756 5.205 2.55L4.795 1.95C4.70441 1.81244 4.58125 1.69938 4.43645 1.62088C4.29165 1.54238 4.12971 1.50085 3.965 1.5H2C1.73478 1.5 1.48043 1.60536 1.29289 1.79289C1.10536 1.98043 1 2.23478 1 2.5V9C1 9.55 1.45 10 2 10Z" stroke="var(--stroke-0, #333333)" stroke-width="0.827596" stroke-linecap="round" stroke-linejoin="round"/>
<path id="Vector_2" d="M4 5V7" stroke="var(--stroke-0, #333333)" stroke-width="0.827596" stroke-linecap="round" stroke-linejoin="round"/>
<path id="Vector_3" d="M6 5V6" stroke="var(--stroke-0, #333333)" stroke-width="0.827596" stroke-linecap="round" stroke-linejoin="round"/>
<path id="Vector_4" d="M8 5V8" stroke="var(--stroke-0, #333333)" stroke-width="0.827596" stroke-linecap="round" stroke-linejoin="round"/>
</g>
</svg>
