<svg preserveAspectRatio="none" width="100%" height="100%" overflow="visible" style="display: block;" viewBox="0 0 20 20" fill="none" xmlns="http://www.w3.org/2000/svg">
<g id="Icon">
<path id="Vector" d="M16.6651 8.32992C16.6651 12.4908 12.0492 16.8241 10.4992 18.1624C10.3548 18.271 10.1791 18.3297 9.99839 18.3297C9.81773 18.3297 9.64195 18.271 9.49756 18.1624C7.94756 16.8241 3.33172 12.4908 3.33172 8.32992C3.33172 6.56181 4.0341 4.86612 5.28435 3.61587C6.53459 2.36563 8.23028 1.66325 9.99839 1.66325C11.7665 1.66325 13.4622 2.36563 14.7124 3.61587C15.9627 4.86612 16.6651 6.56181 16.6651 8.32992Z" stroke="var(--stroke-0, #99A1AF)" stroke-width="1.66667" stroke-linecap="round" stroke-linejoin="round"/>
<path id="Vector_2" d="M9.99944 10.831C11.3802 10.831 12.4994 9.71168 12.4994 8.33097C12.4994 6.95026 11.3802 5.83097 9.99944 5.83097C8.61873 5.83097 7.49944 6.95026 7.49944 8.33097C7.49944 9.71168 8.61873 10.831 9.99944 10.831Z" stroke="var(--stroke-0, #99A1AF)" stroke-width="1.66667" stroke-linecap="round" stroke-linejoin="round"/>
</g>
</svg>
