<svg preserveAspectRatio="none" width="100%" height="100%" overflow="visible" style="display: block;" viewBox="0 0 16 16" fill="none" xmlns="http://www.w3.org/2000/svg">
<g id="Icon">
<path id="Vector" d="M8 2H3.33333C2.97971 2 2.64057 2.14048 2.39052 2.39052C2.14048 2.64057 2 2.97971 2 3.33333V12.6667C2 13.0203 2.14048 13.3594 2.39052 13.6095C2.64057 13.8595 2.97971 14 3.33333 14H12.6667C13.0203 14 13.3594 13.8595 13.6095 13.6095C13.8595 13.3594 14 13.0203 14 12.6667V8" stroke="var(--stroke-0, #0A0A0A)" stroke-width="1.33333" stroke-linecap="round" stroke-linejoin="round"/>
<path id="Vector_2" d="M12.25 1.74999C12.5152 1.48477 12.8749 1.33577 13.25 1.33577C13.6251 1.33577 13.9848 1.48477 14.25 1.74999C14.5152 2.0152 14.6642 2.37492 14.6642 2.74999C14.6642 3.12506 14.5152 3.48477 14.25 3.74999L8.24131 9.75932C8.08301 9.91749 7.88745 10.0333 7.67265 10.096L5.75731 10.656C5.69995 10.6727 5.63914 10.6737 5.58125 10.6589C5.52337 10.6441 5.47053 10.6139 5.42828 10.5717C5.38603 10.5294 5.35591 10.4766 5.34108 10.4187C5.32625 10.3608 5.32725 10.3 5.34398 10.2427L5.90398 8.32732C5.967 8.11269 6.083 7.91736 6.24131 7.75932L12.25 1.74999Z" stroke="var(--stroke-0, #0A0A0A)" stroke-width="1.33333" stroke-linecap="round" stroke-linejoin="round"/>
</g>
</svg>
