<svg preserveAspectRatio="none" width="100%" height="100%" overflow="visible" style="display: block;" viewBox="0 0 12 12" fill="none" xmlns="http://www.w3.org/2000/svg">
<g id="Icon" clip-path="url(#clip0_2737_48810)">
<path id="Vector" d="M11.0004 6.00043H9.76043C9.54192 5.99996 9.32926 6.07108 9.15499 6.20292C8.98072 6.33475 8.85443 6.52003 8.79543 6.73043L7.62043 10.9104C7.61286 10.9364 7.59707 10.9592 7.57543 10.9754C7.55379 10.9917 7.52748 11.0004 7.50043 11.0004C7.47339 11.0004 7.44707 10.9917 7.42543 10.9754C7.40379 10.9592 7.388 10.9364 7.38043 10.9104L4.62043 1.09043C4.61286 1.06447 4.59707 1.04166 4.57543 1.02543C4.55379 1.0092 4.52748 1.00043 4.50043 1.00043C4.47339 1.00043 4.44707 1.0092 4.42543 1.02543C4.40379 1.04166 4.388 1.06447 4.38043 1.09043L3.20543 5.27043C3.14666 5.48001 3.02112 5.66469 2.84786 5.79644C2.67461 5.92819 2.46309 5.99981 2.24543 6.00043H1.00043" stroke="var(--stroke-0, #333333)" stroke-linecap="round" stroke-linejoin="round"/>
</g>
<defs>
<clipPath id="clip0_2737_48810">
<rect width="12" height="12" fill="white"/>
</clipPath>
</defs>
</svg>
