<svg preserveAspectRatio="none" width="100%" height="100%" overflow="visible" style="display: block;" viewBox="0 0 17 17" fill="none" xmlns="http://www.w3.org/2000/svg">
<g id="Icon">
<path d="M1 2.152C1 1.74876 1 1.54714 1.07848 1.39313C1.1475 1.25765 1.25765 1.1475 1.39313 1.07848C1.54714 1 1.74876 1 2.152 1H5.608C6.01124 1 6.21286 1 6.36687 1.07848C6.50235 1.1475 6.6125 1.25765 6.68153 1.39313C6.76 1.54714 6.76 1.74876 6.76 2.152V5.608C6.76 6.01124 6.76 6.21286 6.68153 6.36687C6.6125 6.50235 6.50235 6.6125 6.36687 6.68153C6.21286 6.76 6.01124 6.76 5.608 6.76H2.152C1.74876 6.76 1.54714 6.76 1.39313 6.68153C1.25765 6.6125 1.1475 6.50235 1.07848 6.36687C1 6.21286 1 6.01124 1 5.608V2.152Z" fill="var(--fill-0, #252525)"/>
<path d="M1 10.792C1 10.3888 1 10.1871 1.07848 10.0331C1.1475 9.89765 1.25765 9.7875 1.39313 9.71848C1.54714 9.64 1.74876 9.64 2.152 9.64H5.608C6.01124 9.64 6.21286 9.64 6.36687 9.71848C6.50235 9.7875 6.6125 9.89765 6.68153 10.0331C6.76 10.1871 6.76 10.3888 6.76 10.792V14.248C6.76 14.6512 6.76 14.8529 6.68153 15.0069C6.6125 15.1424 6.50235 15.2525 6.36687 15.3215C6.21286 15.4 6.01124 15.4 5.608 15.4H2.152C1.74876 15.4 1.54714 15.4 1.39313 15.3215C1.25765 15.2525 1.1475 15.1424 1.07848 15.0069C1 14.8529 1 14.6512 1 14.248V10.792Z" fill="var(--fill-0, #252525)"/>
<path d="M9.64 2.152C9.64 1.74876 9.64 1.54714 9.71848 1.39313C9.7875 1.25765 9.89765 1.1475 10.0331 1.07848C10.1871 1 10.3888 1 10.792 1H14.248C14.6512 1 14.8529 1 15.0069 1.07848C15.1424 1.1475 15.2525 1.25765 15.3215 1.39313C15.4 1.54714 15.4 1.74876 15.4 2.152V5.608C15.4 6.01124 15.4 6.21286 15.3215 6.36687C15.2525 6.50235 15.1424 6.6125 15.0069 6.68153C14.8529 6.76 14.6512 6.76 14.248 6.76H10.792C10.3888 6.76 10.1871 6.76 10.0331 6.68153C9.89765 6.6125 9.7875 6.50235 9.71848 6.36687C9.64 6.21286 9.64 6.01124 9.64 5.608V2.152Z" fill="var(--fill-0, #252525)"/>
<path d="M9.64 10.792C9.64 10.3888 9.64 10.1871 9.71848 10.0331C9.7875 9.89765 9.89765 9.7875 10.0331 9.71848C10.1871 9.64 10.3888 9.64 10.792 9.64H14.248C14.6512 9.64 14.8529 9.64 15.0069 9.71848C15.1424 9.7875 15.2525 9.89765 15.3215 10.0331C15.4 10.1871 15.4 10.3888 15.4 10.792V14.248C15.4 14.6512 15.4 14.8529 15.3215 15.0069C15.2525 15.1424 15.1424 15.2525 15.0069 15.3215C14.8529 15.4 14.6512 15.4 14.248 15.4H10.792C10.3888 15.4 10.1871 15.4 10.0331 15.3215C9.89765 15.2525 9.7875 15.1424 9.71848 15.0069C9.64 14.8529 9.64 14.6512 9.64 14.248V10.792Z" fill="var(--fill-0, #252525)"/>
<path d="M1 2.152C1 1.74876 1 1.54714 1.07848 1.39313C1.1475 1.25765 1.25765 1.1475 1.39313 1.07848C1.54714 1 1.74876 1 2.152 1H5.608C6.01124 1 6.21286 1 6.36687 1.07848C6.50235 1.1475 6.6125 1.25765 6.68153 1.39313C6.76 1.54714 6.76 1.74876 6.76 2.152V5.608C6.76 6.01124 6.76 6.21286 6.68153 6.36687C6.6125 6.50235 6.50235 6.6125 6.36687 6.68153C6.21286 6.76 6.01124 6.76 5.608 6.76H2.152C1.74876 6.76 1.54714 6.76 1.39313 6.68153C1.25765 6.6125 1.1475 6.50235 1.07848 6.36687C1 6.21286 1 6.01124 1 5.608V2.152Z" stroke="var(--stroke-0, #252525)" stroke-width="1.8"/>
<path d="M1 10.792C1 10.3888 1 10.1871 1.07848 10.0331C1.1475 9.89765 1.25765 9.7875 1.39313 9.71848C1.54714 9.64 1.74876 9.64 2.152 9.64H5.608C6.01124 9.64 6.21286 9.64 6.36687 9.71848C6.50235 9.7875 6.6125 9.89765 6.68153 10.0331C6.76 10.1871 6.76 10.3888 6.76 10.792V14.248C6.76 14.6512 6.76 14.8529 6.68153 15.0069C6.6125 15.1424 6.50235 15.2525 6.36687 15.3215C6.21286 15.4 6.01124 15.4 5.608 15.4H2.152C1.74876 15.4 1.54714 15.4 1.39313 15.3215C1.25765 15.2525 1.1475 15.1424 1.07848 15.0069C1 14.8529 1 14.6512 1 14.248V10.792Z" stroke="var(--stroke-0, #252525)" stroke-width="1.8"/>
<path d="M9.64 2.152C9.64 1.74876 9.64 1.54714 9.71848 1.39313C9.7875 1.25765 9.89765 1.1475 10.0331 1.07848C10.1871 1 10.3888 1 10.792 1H14.248C14.6512 1 14.8529 1 15.0069 1.07848C15.1424 1.1475 15.2525 1.25765 15.3215 1.39313C15.4 1.54714 15.4 1.74876 15.4 2.152V5.608C15.4 6.01124 15.4 6.21286 15.3215 6.36687C15.2525 6.50235 15.1424 6.6125 15.0069 6.68153C14.8529 6.76 14.6512 6.76 14.248 6.76H10.792C10.3888 6.76 10.1871 6.76 10.0331 6.68153C9.89765 6.6125 9.7875 6.50235 9.71848 6.36687C9.64 6.21286 9.64 6.01124 9.64 5.608V2.152Z" stroke="var(--stroke-0, #252525)" stroke-width="1.8"/>
<path d="M9.64 10.792C9.64 10.3888 9.64 10.1871 9.71848 10.0331C9.7875 9.89765 9.89765 9.7875 10.0331 9.71848C10.1871 9.64 10.3888 9.64 10.792 9.64H14.248C14.6512 9.64 14.8529 9.64 15.0069 9.71848C15.1424 9.7875 15.2525 9.89765 15.3215 10.0331C15.4 10.1871 15.4 10.3888 15.4 10.792V14.248C15.4 14.6512 15.4 14.8529 15.3215 15.0069C15.2525 15.1424 15.1424 15.2525 15.0069 15.3215C14.8529 15.4 14.6512 15.4 14.248 15.4H10.792C10.3888 15.4 10.1871 15.4 10.0331 15.3215C9.89765 15.2525 9.7875 15.1424 9.71848 15.0069C9.64 14.8529 9.64 14.6512 9.64 14.248V10.792Z" stroke="var(--stroke-0, #252525)" stroke-width="1.8"/>
</g>
</svg>
