<svg preserveAspectRatio="none" width="100%" height="100%" overflow="visible" style="display: block;" viewBox="0 0 16 16" fill="none" xmlns="http://www.w3.org/2000/svg">
<g id="iconamoon:screen-full-duotone">
<path id="Vector" d="M2.66667 6V4C2.66667 3.64638 2.80714 3.30724 3.05719 3.05719C3.30724 2.80714 3.64638 2.66667 4 2.66667H6M13.3333 10V12C13.3333 12.3536 13.1929 12.6928 12.9428 12.9428C12.6928 13.1929 12.3536 13.3333 12 13.3333H10M10 2.66667H12C12.3536 2.66667 12.6928 2.80714 12.9428 3.05719C13.1929 3.30724 13.3333 3.64638 13.3333 4V6M6 13.3333H4C3.64638 13.3333 3.30724 13.1929 3.05719 12.9428C2.80714 12.6928 2.66667 12.3536 2.66667 12V10" stroke="var(--stroke-0, white)" stroke-width="1.33333" stroke-linecap="round" stroke-linejoin="round"/>
</g>
</svg>
