<svg preserveAspectRatio="none" width="100%" height="100%" overflow="visible" style="display: block;" viewBox="0 0 24 23" fill="none" xmlns="http://www.w3.org/2000/svg">
<g id="Group">
<path id="Vector" d="M6 22.5C6 22.5 4.5 22.5 4.5 21C4.5 19.5 6 15 12 15C18 15 19.5 19.5 19.5 21C19.5 22.5 18 22.5 18 22.5H6ZM12 13.575C12.9946 13.575 13.9484 13.1799 14.6517 12.4767C15.3549 11.7734 15.75 10.8196 15.75 9.825C15.75 8.83044 15.3549 7.87661 14.6517 7.17335C13.9484 6.47009 12.9946 6.075 12 6.075C11.0054 6.075 10.0516 6.47009 9.34835 7.17335C8.64509 7.87661 8.25 8.83044 8.25 9.825C8.25 10.8196 8.64509 11.7734 9.34835 12.4767C10.0516 13.1799 11.0054 13.575 12 13.575Z" fill="var(--fill-0, white)"/>
<path id="Vector_2" d="M3 0C2.20435 0 1.44129 0.316071 0.87868 0.87868C0.316071 1.44129 0 2.20435 0 3L0 17.25C0 17.8467 0.237053 18.419 0.65901 18.841C1.08097 19.2629 1.65326 19.5 2.25 19.5H3.2295C3.54429 18.3982 4.08929 17.3756 4.8285 16.5H1.5V3C1.5 2.60218 1.65804 2.22064 1.93934 1.93934C2.22064 1.65804 2.60218 1.5 3 1.5H21C21.3978 1.5 21.7794 1.65804 22.0607 1.93934C22.342 2.22064 22.5 2.60218 22.5 3V16.5H19.1715C20.0025 17.481 20.5065 18.5595 20.7705 19.5H21.75C22.3467 19.5 22.919 19.2629 23.341 18.841C23.7629 18.419 24 17.8467 24 17.25V3C24 2.20435 23.6839 1.44129 23.1213 0.87868C22.5587 0.316071 21.7956 0 21 0H3Z" fill="var(--fill-0, white)"/>
</g>
</svg>
