<svg preserveAspectRatio="none" width="100%" height="100%" overflow="visible" style="display: block;" viewBox="0 0 16 16" fill="none" xmlns="http://www.w3.org/2000/svg">
<g id="radix-icons:share-2">
<path id="Vector" fill-rule="evenodd" clip-rule="evenodd" d="M3.73333 5.33333C3.59188 5.33333 3.45623 5.38952 3.35621 5.48954C3.25619 5.58956 3.2 5.72522 3.2 5.86667V12.2667C3.2 12.4081 3.25619 12.5438 3.35621 12.6438C3.45623 12.7438 3.59188 12.8 3.73333 12.8H12.2667C12.4081 12.8 12.5438 12.7438 12.6438 12.6438C12.7438 12.5438 12.8 12.4081 12.8 12.2667V5.86667C12.8 5.72522 12.7438 5.58956 12.6438 5.48954C12.5438 5.38952 12.4081 5.33333 12.2667 5.33333H10.9333C10.7919 5.33333 10.6562 5.27714 10.5562 5.17712C10.4562 5.0771 10.4 4.94145 10.4 4.8C10.4 4.65855 10.4562 4.5229 10.5562 4.42288C10.6562 4.32286 10.7919 4.26667 10.9333 4.26667H12.2667C12.691 4.26667 13.098 4.43524 13.398 4.7353C13.6981 5.03535 13.8667 5.44232 13.8667 5.86667V12.2667C13.8667 12.691 13.6981 13.098 13.398 13.398C13.098 13.6981 12.691 13.8667 12.2667 13.8667H3.73333C3.30899 13.8667 2.90202 13.6981 2.60196 13.398C2.3019 13.098 2.13333 12.691 2.13333 12.2667V5.86667C2.13333 5.44232 2.3019 5.03535 2.60196 4.7353C2.90202 4.43524 3.30899 4.26667 3.73333 4.26667H5.06667C5.20812 4.26667 5.34377 4.32286 5.44379 4.42288C5.54381 4.5229 5.6 4.65855 5.6 4.8C5.6 4.94145 5.54381 5.0771 5.44379 5.17712C5.34377 5.27714 5.20812 5.33333 5.06667 5.33333H3.73333ZM7.46667 1.74507L5.9392 3.27253C5.84821 3.35732 5.72786 3.40348 5.60351 3.40129C5.47915 3.39909 5.36051 3.34872 5.27256 3.26077C5.18462 3.17283 5.13424 3.05418 5.13205 2.92983C5.12985 2.80547 5.17601 2.68513 5.2608 2.59413L7.6608 0.194133C7.7508 0.104245 7.8728 0.0537556 8 0.0537556C8.1272 0.0537556 8.2492 0.104245 8.3392 0.194133L10.7392 2.59413C10.824 2.68513 10.8701 2.80547 10.868 2.92983C10.8658 3.05418 10.8154 3.17283 10.7274 3.26077C10.6395 3.34872 10.5208 3.39909 10.3965 3.40129C10.2721 3.40348 10.1518 3.35732 10.0608 3.27253L8.53333 1.74507V9.06667C8.53333 9.20812 8.47714 9.34377 8.37712 9.44379C8.2771 9.54381 8.14145 9.6 8 9.6C7.85855 9.6 7.7229 9.54381 7.62288 9.44379C7.52286 9.34377 7.46667 9.20812 7.46667 9.06667V1.74507Z" fill="var(--fill-0, white)"/>
</g>
</svg>
