<svg preserveAspectRatio="none" width="100%" height="100%" overflow="visible" style="display: block;" viewBox="0 0 12 12" fill="none" xmlns="http://www.w3.org/2000/svg">
<g id="Icon">
<path id="Vector" d="M8 10.5V9.50001C8 8.96957 7.78929 8.46087 7.41421 8.08579C7.03914 7.71072 6.53043 7.50001 6 7.50001H3C2.46957 7.50001 1.96086 7.71072 1.58579 8.08579C1.21071 8.46087 1 8.96957 1 9.50001V10.5" stroke="var(--stroke-0, #333333)" stroke-width="0.943786" stroke-linecap="round" stroke-linejoin="round"/>
<path id="Vector_2" d="M8 1.564C8.42888 1.67519 8.8087 1.92564 9.07984 2.27603C9.35098 2.62643 9.4981 3.05695 9.4981 3.5C9.4981 3.94306 9.35098 4.37357 9.07984 4.72397C8.8087 5.07437 8.42888 5.32482 8 5.436" stroke="var(--stroke-0, #333333)" stroke-width="0.943786" stroke-linecap="round" stroke-linejoin="round"/>
<path id="Vector_3" d="M11 10.5V9.49999C10.9997 9.05686 10.8522 8.62638 10.5807 8.27615C10.3092 7.92592 9.92906 7.67578 9.5 7.56499" stroke="var(--stroke-0, #333333)" stroke-width="0.943786" stroke-linecap="round" stroke-linejoin="round"/>
<path id="Vector_4" d="M4.5 5.5C5.60457 5.5 6.5 4.60457 6.5 3.5C6.5 2.39543 5.60457 1.5 4.5 1.5C3.39543 1.5 2.5 2.39543 2.5 3.5C2.5 4.60457 3.39543 5.5 4.5 5.5Z" stroke="var(--stroke-0, #333333)" stroke-width="0.943786" stroke-linecap="round" stroke-linejoin="round"/>
</g>
</svg>
