<svg preserveAspectRatio="none" width="100%" height="100%" overflow="visible" style="display: block;" viewBox="0 0 24 24" fill="none" xmlns="http://www.w3.org/2000/svg">
<g id="Icon">
<path id="Vector" d="M12.0016 21.9969C9.3494 21.9969 6.80586 20.9433 4.93049 19.0679C3.05513 17.1926 2.00156 14.649 2.00156 11.9969C2.00156 9.34471 3.05513 6.80117 4.93049 4.92581C6.80586 3.05044 9.3494 1.99688 12.0016 1.99688C14.6537 1.99688 17.1973 2.94509 19.0726 4.63291C20.948 6.32074 22.0016 8.60993 22.0016 10.9969C22.0016 12.323 21.4748 13.5947 20.5371 14.5324C19.5994 15.4701 18.3276 15.9969 17.0016 15.9969H14.7516C14.4266 15.9969 14.108 16.0874 13.8315 16.2582C13.5551 16.4291 13.3317 16.6736 13.1863 16.9643C13.041 17.2549 12.9794 17.5804 13.0086 17.904C13.0378 18.2277 13.1566 18.5369 13.3516 18.7969L13.6516 19.1969C13.8466 19.4569 13.9653 19.766 13.9945 20.0897C14.0237 20.4134 13.9622 20.7388 13.8168 21.0295C13.6715 21.3202 13.4481 21.5647 13.1716 21.7355C12.8951 21.9064 12.5766 21.9969 12.2516 21.9969H12.0016Z" stroke="var(--stroke-0, #0A0A0A)" stroke-width="2" stroke-linecap="round" stroke-linejoin="round"/>
<path id="Vector_2" d="M13.4984 7C13.7746 7 13.9984 6.77614 13.9984 6.5C13.9984 6.22386 13.7746 6 13.4984 6C13.2223 6 12.9984 6.22386 12.9984 6.5C12.9984 6.77614 13.2223 7 13.4984 7Z" fill="var(--fill-0, #0A0A0A)" stroke="var(--stroke-0, #0A0A0A)" stroke-width="2" stroke-linecap="round" stroke-linejoin="round"/>
<path id="Vector_3" d="M17.5016 11.0031C17.7777 11.0031 18.0016 10.7793 18.0016 10.5031C18.0016 10.227 17.7777 10.0031 17.5016 10.0031C17.2254 10.0031 17.0016 10.227 17.0016 10.5031C17.0016 10.7793 17.2254 11.0031 17.5016 11.0031Z" fill="var(--fill-0, #0A0A0A)" stroke="var(--stroke-0, #0A0A0A)" stroke-width="2" stroke-linecap="round" stroke-linejoin="round"/>
<path id="Vector_4" d="M6.5 13C6.77614 13 7 12.7761 7 12.5C7 12.2239 6.77614 12 6.5 12C6.22386 12 6 12.2239 6 12.5C6 12.7761 6.22386 13 6.5 13Z" fill="var(--fill-0, #0A0A0A)" stroke="var(--stroke-0, #0A0A0A)" stroke-width="2" stroke-linecap="round" stroke-linejoin="round"/>
<path id="Vector_5" d="M8.50156 8.00313C8.7777 8.00313 9.00156 7.77927 9.00156 7.50313C9.00156 7.22698 8.7777 7.00313 8.50156 7.00313C8.22542 7.00313 8.00156 7.22698 8.00156 7.50313C8.00156 7.77927 8.22542 8.00313 8.50156 8.00313Z" fill="var(--fill-0, #0A0A0A)" stroke="var(--stroke-0, #0A0A0A)" stroke-width="2" stroke-linecap="round" stroke-linejoin="round"/>
</g>
</svg>
