<svg preserveAspectRatio="none" width="100%" height="100%" overflow="visible" style="display: block;" viewBox="0 0 24 24" fill="none" xmlns="http://www.w3.org/2000/svg">
<g id="fluent:folder-24-filled">
<path id="Vector" d="M2 8V6.25C2 5.38805 2.34241 4.5614 2.9519 3.9519C3.5614 3.34241 4.38805 3 5.25 3H8.129C8.72539 3.00026 9.29728 3.23729 9.719 3.659L11.25 5.189L8.659 7.78C8.51848 7.92069 8.32784 7.99982 8.129 8H2ZM2 9.5V17.75C2 18.612 2.34241 19.4386 2.9519 20.0481C3.5614 20.6576 4.38805 21 5.25 21H18.75C19.1768 21 19.5994 20.9159 19.9937 20.7526C20.388 20.5893 20.7463 20.3499 21.0481 20.0481C21.3499 19.7463 21.5893 19.388 21.7526 18.9937C21.9159 18.5994 22 18.1768 22 17.75V8.75C22 8.3232 21.9159 7.90059 21.7526 7.50628C21.5893 7.11197 21.3499 6.75369 21.0481 6.4519C20.7463 6.15011 20.388 5.91072 19.9937 5.74739C19.5994 5.58406 19.1768 5.5 18.75 5.5H13.06L9.72 8.841C9.51107 9.04993 9.26303 9.21566 8.99004 9.32873C8.71706 9.44181 8.42447 9.5 8.129 9.5H2Z" fill="var(--fill-0, #252525)"/>
</g>
</svg>
