<svg preserveAspectRatio="none" width="100%" height="100%" overflow="visible" style="display: block;" viewBox="0 0 64 64" fill="none" xmlns="http://www.w3.org/2000/svg">
<g id="Group 1984077193">
<g id="Ellipse 10" filter="url(#filter0_d_1324_17110)">
<circle cx="32" cy="28" r="24" fill="var(--fill-0, white)"/>
</g>
<g id="tabler:message-filled">
<path id="Vector" d="M38 19C39.0609 19 40.0783 19.4214 40.8284 20.1716C41.5786 20.9217 42 21.9391 42 23V31C42 32.0609 41.5786 33.0783 40.8284 33.8284C40.0783 34.5786 39.0609 35 38 35H33.276L28.514 37.857C28.3706 37.9431 28.2079 37.9918 28.0408 37.9987C27.8737 38.0056 27.7075 37.9705 27.5575 37.8966C27.4074 37.8227 27.2783 37.7123 27.182 37.5756C27.0857 37.4389 27.0251 37.2802 27.006 37.114L27 37V35H26C24.9738 35 23.9868 34.6056 23.2432 33.8983C22.4996 33.191 22.0563 32.225 22.005 31.2L22 31V23C22 21.9391 22.4214 20.9217 23.1716 20.1716C23.9217 19.4214 24.9391 19 26 19H38ZM34 28H28C27.7348 28 27.4804 28.1054 27.2929 28.2929C27.1054 28.4804 27 28.7348 27 29C27 29.2652 27.1054 29.5196 27.2929 29.7071C27.4804 29.8946 27.7348 30 28 30H34C34.2652 30 34.5196 29.8946 34.7071 29.7071C34.8946 29.5196 35 29.2652 35 29C35 28.7348 34.8946 28.4804 34.7071 28.2929C34.5196 28.1054 34.2652 28 34 28ZM36 24H28C27.7348 24 27.4804 24.1054 27.2929 24.2929C27.1054 24.4804 27 24.7348 27 25C27 25.2652 27.1054 25.5196 27.2929 25.7071C27.4804 25.8946 27.7348 26 28 26H36C36.2652 26 36.5196 25.8946 36.7071 25.7071C36.8946 25.5196 37 25.2652 37 25C37 24.7348 36.8946 24.4804 36.7071 24.2929C36.5196 24.1054 36.2652 24 36 24Z" fill="var(--fill-0, #06263D)"/>
</g>
</g>
<defs>
<filter id="filter0_d_1324_17110" x="0" y="0" width="64" height="64" filterUnits="userSpaceOnUse" color-interpolation-filters="sRGB">
<feFlood flood-opacity="0" result="BackgroundImageFix"/>
<feColorMatrix in="SourceAlpha" type="matrix" values="0 0 0 0 0 0 0 0 0 0 0 0 0 0 0 0 0 0 127 0" result="hardAlpha"/>
<feOffset dy="4"/>
<feGaussianBlur stdDeviation="4"/>
<feComposite in2="hardAlpha" operator="out"/>
<feColorMatrix type="matrix" values="0 0 0 0 0.0235294 0 0 0 0 0.14902 0 0 0 0 0.239216 0 0 0 0.16 0"/>
<feBlend mode="normal" in2="BackgroundImageFix" result="effect1_dropShadow_1324_17110"/>
<feBlend mode="normal" in="SourceGraphic" in2="effect1_dropShadow_1324_17110" result="shape"/>
</filter>
</defs>
</svg>
