<svg preserveAspectRatio="none" width="100%" height="100%" overflow="visible" style="display: block;" viewBox="0 0 16 16" fill="none" xmlns="http://www.w3.org/2000/svg">
<g id="Icon">
<path id="Vector" d="M1.37466 8.232C1.3191 8.08232 1.3191 7.91767 1.37466 7.768C1.91579 6.4559 2.83433 5.33402 4.01384 4.5446C5.19334 3.75517 6.58069 3.33374 7.99999 3.33374C9.4193 3.33374 10.8066 3.75517 11.9861 4.5446C13.1656 5.33402 14.0842 6.4559 14.6253 7.768C14.6809 7.91767 14.6809 8.08232 14.6253 8.232C14.0842 9.54409 13.1656 10.666 11.9861 11.4554C10.8066 12.2448 9.4193 12.6663 7.99999 12.6663C6.58069 12.6663 5.19334 12.2448 4.01384 11.4554C2.83433 10.666 1.91579 9.54409 1.37466 8.232Z" stroke="var(--stroke-0, white)" stroke-width="1.33333" stroke-linecap="round" stroke-linejoin="round"/>
<path id="Vector_2" d="M8 10C9.10457 10 10 9.10457 10 8C10 6.89543 9.10457 6 8 6C6.89543 6 6 6.89543 6 8C6 9.10457 6.89543 10 8 10Z" stroke="var(--stroke-0, white)" stroke-width="1.33333" stroke-linecap="round" stroke-linejoin="round"/>
</g>
</svg>
