<svg preserveAspectRatio="none" width="100%" height="100%" overflow="visible" style="display: block;" viewBox="0 0 24 24" fill="none" xmlns="http://www.w3.org/2000/svg">
<g id="Icon">
<path id="Vector" d="M3.99872 13.9995C3.80949 14.0001 3.62395 13.9471 3.46368 13.8465C3.3034 13.7459 3.17496 13.6018 3.09327 13.4311C3.01159 13.2604 2.98002 13.0701 3.00222 12.8821C3.02443 12.6942 3.0995 12.5164 3.21872 12.3695L13.1187 2.16948C13.193 2.08376 13.2942 2.02584 13.4057 2.00521C13.5172 1.98459 13.6324 2.00249 13.7325 2.05598C13.8325 2.10947 13.9113 2.19538 13.9561 2.29959C14.0008 2.4038 14.0088 2.52013 13.9787 2.62948L12.0587 8.64948C12.0021 8.801 11.9831 8.964 12.0033 9.12449C12.0235 9.28497 12.0824 9.43816 12.1748 9.57091C12.2672 9.70365 12.3905 9.81199 12.534 9.88664C12.6775 9.96129 12.837 10 12.9987 9.99948H19.9987C20.188 9.99883 20.3735 10.0519 20.5338 10.1525C20.694 10.2531 20.8225 10.3971 20.9042 10.5678C20.9859 10.7385 21.0174 10.9289 20.9952 11.1168C20.973 11.3048 20.8979 11.4825 20.7787 11.6295L10.8787 21.8295C10.8045 21.9152 10.7033 21.9731 10.5917 21.9937C10.4802 22.0144 10.365 21.9965 10.265 21.943C10.165 21.8895 10.0861 21.8036 10.0414 21.6994C9.99664 21.5952 9.98865 21.4788 10.0187 21.3695L11.9387 15.3495C11.9953 15.198 12.0144 15.035 11.9941 14.8745C11.9739 14.714 11.9151 14.5608 11.8226 14.4281C11.7302 14.2953 11.6069 14.187 11.4634 14.1123C11.3199 14.0377 11.1605 13.999 10.9987 13.9995H3.99872Z" stroke="var(--stroke-0, #0A0A0A)" stroke-width="2" stroke-linecap="round" stroke-linejoin="round"/>
</g>
</svg>
