<svg preserveAspectRatio="none" width="100%" height="100%" overflow="visible" style="display: block;" viewBox="0 0 20 20" fill="none" xmlns="http://www.w3.org/2000/svg">
<g id="Icon" clip-path="url(#clip0_2737_48789)">
<path id="Vector" d="M11.5289 13.801C11.701 13.8801 11.8949 13.8981 12.0786 13.8522C12.2623 13.8064 12.425 13.6992 12.5397 13.5485L12.8355 13.161C12.9908 12.9541 13.1921 12.786 13.4235 12.6703C13.6549 12.5546 13.9101 12.4944 14.1689 12.4944H16.6689C17.1109 12.4944 17.5348 12.67 17.8474 12.9825C18.1599 13.2951 18.3355 13.719 18.3355 14.161V16.661C18.3355 17.1031 18.1599 17.527 17.8474 17.8396C17.5348 18.1521 17.1109 18.3277 16.6689 18.3277C12.6906 18.3277 8.87531 16.7474 6.06226 13.9343C3.24921 11.1213 1.66886 7.30596 1.66886 3.32771C1.66886 2.88569 1.84446 2.46176 2.15702 2.1492C2.46958 1.83664 2.8935 1.66105 3.33553 1.66105H5.83553C6.27756 1.66105 6.70148 1.83664 7.01404 2.1492C7.3266 2.46176 7.5022 2.88569 7.5022 3.32771V5.82771C7.5022 6.08646 7.44195 6.34165 7.32624 6.57307C7.21053 6.8045 7.04252 7.0058 6.83553 7.16105L6.44553 7.45355C6.29254 7.57036 6.18471 7.73654 6.14035 7.92384C6.096 8.11114 6.11785 8.30803 6.2022 8.48105C7.3411 10.7943 9.21422 12.665 11.5289 13.801Z" stroke="var(--stroke-0, #99A1AF)" stroke-width="1.66667" stroke-linecap="round" stroke-linejoin="round"/>
</g>
<defs>
<clipPath id="clip0_2737_48789">
<rect width="20" height="20" fill="white"/>
</clipPath>
</defs>
</svg>
