<svg preserveAspectRatio="none" width="100%" height="100%" overflow="visible" style="display: block;" viewBox="0 0 20 20" fill="none" xmlns="http://www.w3.org/2000/svg">
<g id="Icon">
<path id="Vector" d="M13.3332 9.16576L14.9999 10.8324L18.3332 7.4991" stroke="var(--stroke-0, #99A1AF)" stroke-width="1.66667" stroke-linecap="round" stroke-linejoin="round"/>
<path id="Vector_2" d="M13.3355 17.4931V15.8264C13.3355 14.9424 12.9843 14.0945 12.3592 13.4694C11.7341 12.8443 10.8863 12.4931 10.0022 12.4931H5.0022C4.11814 12.4931 3.27029 12.8443 2.64517 13.4694C2.02005 14.0945 1.66886 14.9424 1.66886 15.8264V17.4931" stroke="var(--stroke-0, #99A1AF)" stroke-width="1.66667" stroke-linecap="round" stroke-linejoin="round"/>
<path id="Vector_3" d="M7.49919 9.16395C9.34014 9.16395 10.8325 7.67157 10.8325 5.83062C10.8325 3.98967 9.34014 2.49729 7.49919 2.49729C5.65824 2.49729 4.16586 3.98967 4.16586 5.83062C4.16586 7.67157 5.65824 9.16395 7.49919 9.16395Z" stroke="var(--stroke-0, #99A1AF)" stroke-width="1.66667" stroke-linecap="round" stroke-linejoin="round"/>
</g>
</svg>
