<svg preserveAspectRatio="none" width="100%" height="100%" overflow="visible" style="display: block;" viewBox="0 0 24 24" fill="none" xmlns="http://www.w3.org/2000/svg">
<g id="codicon:debug-step-back">
<path id="Vector" fill-rule="evenodd" clip-rule="evenodd" d="M2.625 8.625V2.625H4.875V6.438C6.5925 4.3995 9.2415 3.1245 12.135 3.1245C16.9005 3.1245 21.015 6.585 21.375 11.2215L21.405 11.625H19.155L19.122 11.286C18.804 7.9935 15.819 5.376 12.138 5.376C9.534 5.376 7.272 6.6885 6.063 8.625H10.308V10.875H4.0605L2.619 9.4125V8.625H2.6235H2.625ZM12 21C11.2044 21 10.4413 20.6839 9.87868 20.1213C9.31607 19.5587 9 18.7956 9 18C9 17.2044 9.31607 16.4413 9.87868 15.8787C10.4413 15.3161 11.2044 15 12 15C12.7957 15 13.5587 15.3161 14.1213 15.8787C14.6839 16.4413 15 17.2044 15 18C15 18.7956 14.6839 19.5587 14.1213 20.1213C13.5587 20.6839 12.7957 21 12 21Z" fill="var(--fill-0, #06263D)"/>
</g>
</svg>
