<svg preserveAspectRatio="none" width="100%" height="100%" overflow="visible" style="display: block;" viewBox="0 0 24 24" fill="none" xmlns="http://www.w3.org/2000/svg">
<g id="fluent:arrow-sprint-20-filled">
<path id="Vector" d="M11.3243 6.9358C10.8158 6.9358 10.3124 7.03595 9.84266 7.23051C9.37294 7.42508 8.94613 7.71026 8.58662 8.06977C8.22711 8.42928 7.94193 8.85608 7.74737 9.3258C7.5528 9.79553 7.45266 10.299 7.45266 10.8074C7.45266 11.3158 7.5528 11.8193 7.74737 12.289C7.94193 12.7587 8.22711 13.1855 8.58662 13.545C8.94613 13.9045 9.37294 14.1897 9.84266 14.3843C10.3124 14.5789 10.8158 14.679 11.3243 14.679H19.6353L18.7061 13.7498C18.611 13.6612 18.5347 13.5543 18.4818 13.4356C18.4289 13.3169 18.4005 13.1887 18.3982 13.0588C18.3959 12.9288 18.4198 12.7997 18.4685 12.6792C18.5172 12.5587 18.5896 12.4492 18.6815 12.3573C18.7734 12.2654 18.8829 12.1929 19.0034 12.1442C19.124 12.0956 19.253 12.0716 19.383 12.0739C19.513 12.0762 19.6411 12.1047 19.7599 12.1576C19.8786 12.2105 19.9855 12.2868 20.0741 12.3818L22.6551 14.9629C22.8364 15.1444 22.9382 15.3904 22.9382 15.6469C22.9382 15.9034 22.8364 16.1494 22.6551 16.3309L20.0741 18.9119C19.9855 19.007 19.8786 19.0833 19.7599 19.1362C19.6411 19.1891 19.513 19.2176 19.383 19.2198C19.253 19.2221 19.124 19.1982 19.0034 19.1496C18.8829 19.1009 18.7734 19.0284 18.6815 18.9365C18.5896 18.8446 18.5172 18.7351 18.4685 18.6146C18.4198 18.4941 18.3959 18.365 18.3982 18.235C18.4005 18.1051 18.4289 17.9769 18.4818 17.8582C18.5347 17.7394 18.611 17.6326 18.7061 17.544L19.6353 16.6148H11.3243C10.0616 16.6145 8.83335 16.2028 7.8257 15.4418C6.81804 14.6809 6.08584 13.6123 5.74002 12.3979C5.39421 11.1835 5.45362 9.88942 5.90926 8.71181C6.36491 7.53419 7.19195 6.53716 8.26509 5.87177C9.33824 5.20637 10.599 4.90887 11.8564 5.02434C13.1138 5.1398 14.2993 5.66193 15.2333 6.51164C16.1674 7.36134 16.799 8.49231 17.0326 9.73322C17.2661 10.9741 17.0889 12.2573 16.5277 13.3885H14.2099C14.7081 12.8314 15.0345 12.142 15.1496 11.4036C15.2647 10.6651 15.1636 9.90913 14.8585 9.22687C14.5533 8.54461 14.0573 7.96524 13.4302 7.5587C12.803 7.15216 12.0716 6.93582 11.3243 6.9358ZM1.9679 14.679H5.3749C5.86792 15.4373 6.50132 16.0943 7.24101 16.6148H1.9679C1.7112 16.6148 1.46501 16.5128 1.28349 16.3313C1.10197 16.1498 1 15.9036 1 15.6469C1 15.3902 1.10197 15.144 1.28349 14.9625C1.46501 14.781 1.7112 14.679 1.9679 14.679Z" fill="var(--fill-0, #06263D)"/>
</g>
</svg>
