<svg preserveAspectRatio="none" width="100%" height="100%" overflow="visible" style="display: block;" viewBox="0 0 32 32" fill="none" xmlns="http://www.w3.org/2000/svg">
<g id="Group 2087324215">
<circle id="Ellipse 3247" cx="16" cy="16" r="16" fill="var(--fill-0, #67909B)"/>
<g id="fluent:attach-16-regular">
<path id="Vector" d="M10.283 15.975C10.2828 16.074 10.3121 16.1709 10.367 16.2533C10.4219 16.3356 10.5001 16.3999 10.5915 16.4378C10.683 16.4757 10.7837 16.4856 10.8808 16.4662C10.9779 16.4469 11.0671 16.3991 11.137 16.329L15.732 11.732C16.2009 11.2631 16.8369 10.9997 17.5 10.9997C17.8283 10.9997 18.1535 11.0643 18.4568 11.19C18.7602 11.3157 19.0358 11.4998 19.268 11.732C19.5002 11.9642 19.6843 12.2398 19.81 12.5432C19.9357 12.8465 20.0003 13.1717 20.0003 13.5C20.0003 13.8283 19.9357 14.1535 19.81 14.4568C19.6843 14.7602 19.5002 15.0358 19.268 15.268L13.965 20.571C13.7764 20.7532 13.5238 20.854 13.2616 20.8517C12.9994 20.8494 12.7486 20.7442 12.5632 20.5588C12.3778 20.3734 12.2726 20.1226 12.2703 19.8604C12.268 19.5982 12.3688 19.3456 12.551 19.157L17.854 13.854C17.9005 13.8075 17.9374 13.7523 17.9625 13.6916C17.9877 13.6308 18.0006 13.5657 18.0006 13.5C18.0006 13.4343 17.9877 13.3692 17.9625 13.3084C17.9374 13.2477 17.9005 13.1925 17.854 13.146C17.8075 13.0995 17.7523 13.0626 17.6916 13.0375C17.6308 13.0123 17.5657 12.9994 17.5 12.9994C17.4343 12.9994 17.3692 13.0123 17.3084 13.0375C17.2477 13.0626 17.1925 13.0995 17.146 13.146L11.843 18.45C11.652 18.6345 11.4996 18.8552 11.3948 19.0992C11.29 19.3432 11.2348 19.6056 11.2325 19.8712C11.2302 20.1368 11.2808 20.4001 11.3814 20.6459C11.4819 20.8917 11.6304 21.115 11.8182 21.3028C12.006 21.4906 12.2293 21.6391 12.4751 21.7396C12.7209 21.8402 12.9842 21.8908 13.2498 21.8885C13.5154 21.8862 13.7778 21.831 14.0218 21.7262C14.2658 21.6214 14.4865 21.469 14.671 21.278L19.974 15.975C20.6304 15.3186 20.9992 14.4283 20.9992 13.5C20.9992 12.5717 20.6304 11.6814 19.974 11.025C19.3176 10.3686 18.4273 9.99982 17.499 9.99982C16.5707 9.99982 15.6804 10.3686 15.024 11.025L10.43 15.621C10.3836 15.6675 10.3468 15.7227 10.3218 15.7835C10.2967 15.8442 10.2829 15.9093 10.283 15.975Z" fill="var(--fill-0, white)"/>
</g>
</g>
</svg>
