<svg preserveAspectRatio="none" width="100%" height="100%" overflow="visible" style="display: block;" viewBox="0 0 28 28" fill="none" xmlns="http://www.w3.org/2000/svg">
<g id="Icon">
<path d="M2 3.92C2 3.24794 2 2.91191 2.13079 2.65521C2.24584 2.42942 2.42942 2.24584 2.65521 2.13079C2.91191 2 3.24794 2 3.92 2H9.68C10.3521 2 10.6881 2 10.9448 2.13079C11.1706 2.24584 11.3542 2.42942 11.4692 2.65521C11.6 2.91191 11.6 3.24794 11.6 3.92V9.68C11.6 10.3521 11.6 10.6881 11.4692 10.9448C11.3542 11.1706 11.1706 11.3542 10.9448 11.4692C10.6881 11.6 10.3521 11.6 9.68 11.6H3.92C3.24794 11.6 2.91191 11.6 2.65521 11.4692C2.42942 11.3542 2.24584 11.1706 2.13079 10.9448C2 10.6881 2 10.3521 2 9.68V3.92Z" stroke="var(--stroke-0, white)" stroke-width="3"/>
<path d="M2 18.32C2 17.6479 2 17.3119 2.13079 17.0552C2.24584 16.8294 2.42942 16.6458 2.65521 16.5308C2.91191 16.4 3.24794 16.4 3.92 16.4H9.68C10.3521 16.4 10.6881 16.4 10.9448 16.5308C11.1706 16.6458 11.3542 16.8294 11.4692 17.0552C11.6 17.3119 11.6 17.6479 11.6 18.32V24.08C11.6 24.7521 11.6 25.0881 11.4692 25.3448C11.3542 25.5706 11.1706 25.7542 10.9448 25.8692C10.6881 26 10.3521 26 9.68 26H3.92C3.24794 26 2.91191 26 2.65521 25.8692C2.42942 25.7542 2.24584 25.5706 2.13079 25.3448C2 25.0881 2 24.7521 2 24.08V18.32Z" stroke="var(--stroke-0, white)" stroke-width="3"/>
<path d="M16.4 3.92C16.4 3.24794 16.4 2.91191 16.5308 2.65521C16.6458 2.42942 16.8294 2.24584 17.0552 2.13079C17.3119 2 17.6479 2 18.32 2H24.08C24.7521 2 25.0881 2 25.3448 2.13079C25.5706 2.24584 25.7542 2.42942 25.8692 2.65521C26 2.91191 26 3.24794 26 3.92V9.68C26 10.3521 26 10.6881 25.8692 10.9448C25.7542 11.1706 25.5706 11.3542 25.3448 11.4692C25.0881 11.6 24.7521 11.6 24.08 11.6H18.32C17.6479 11.6 17.3119 11.6 17.0552 11.4692C16.8294 11.3542 16.6458 11.1706 16.5308 10.9448C16.4 10.6881 16.4 10.3521 16.4 9.68V3.92Z" stroke="var(--stroke-0, white)" stroke-width="3"/>
<path d="M16.4 18.32C16.4 17.6479 16.4 17.3119 16.5308 17.0552C16.6458 16.8294 16.8294 16.6458 17.0552 16.5308C17.3119 16.4 17.6479 16.4 18.32 16.4H24.08C24.7521 16.4 25.0881 16.4 25.3448 16.5308C25.5706 16.6458 25.7542 16.8294 25.8692 17.0552C26 17.3119 26 17.6479 26 18.32V24.08C26 24.7521 26 25.0881 25.8692 25.3448C25.7542 25.5706 25.5706 25.7542 25.3448 25.8692C25.0881 26 24.7521 26 24.08 26H18.32C17.6479 26 17.3119 26 17.0552 25.8692C16.8294 25.7542 16.6458 25.5706 16.5308 25.3448C16.4 25.0881 16.4 24.7521 16.4 24.08V18.32Z" stroke="var(--stroke-0, white)" stroke-width="3"/>
</g>
</svg>
