<svg preserveAspectRatio="none" width="100%" height="100%" overflow="visible" style="display: block;" viewBox="0 0 32 32" fill="none" xmlns="http://www.w3.org/2000/svg">
<g id="Group 2087324218">
<circle id="Ellipse 3247" cx="16" cy="16" r="16" fill="var(--fill-0, #67909B)"/>
<g id="fa7-regular:smile" clip-path="url(#clip0_1262_17109)">
<path id="Vector" d="M22.5 16C22.5 14.2761 21.8152 12.6228 20.5962 11.4038C19.3772 10.1848 17.7239 9.5 16 9.5C14.2761 9.5 12.6228 10.1848 11.4038 11.4038C10.1848 12.6228 9.5 14.2761 9.5 16C9.5 17.7239 10.1848 19.3772 11.4038 20.5962C12.6228 21.8152 14.2761 22.5 16 22.5C17.7239 22.5 19.3772 21.8152 20.5962 20.5962C21.8152 19.3772 22.5 17.7239 22.5 16ZM8 16C8 13.8783 8.84285 11.8434 10.3431 10.3431C11.8434 8.84285 13.8783 8 16 8C18.1217 8 20.1566 8.84285 21.6569 10.3431C23.1571 11.8434 24 13.8783 24 16C24 18.1217 23.1571 20.1566 21.6569 21.6569C20.1566 23.1571 18.1217 24 16 24C13.8783 24 11.8434 23.1571 10.3431 21.6569C8.84285 20.1566 8 18.1217 8 16ZM13.5406 17.9812C14.0094 18.4687 14.825 19 16 19C17.175 19 17.9906 18.4687 18.4594 17.9812C18.7469 17.6812 19.2219 17.6719 19.5188 17.9594C19.8156 18.2469 19.8281 18.7219 19.5406 19.0188C18.85 19.7375 17.6656 20.5 16 20.5C14.3344 20.5 13.15 19.7375 12.4594 19.0188C12.1719 18.7188 12.1812 18.2438 12.4812 17.9594C12.7812 17.675 13.2563 17.6812 13.5406 17.9812ZM12.5 14.5C12.5 14.2348 12.6054 13.9804 12.7929 13.7929C12.9804 13.6054 13.2348 13.5 13.5 13.5C13.7652 13.5 14.0196 13.6054 14.2071 13.7929C14.3946 13.9804 14.5 14.2348 14.5 14.5C14.5 14.7652 14.3946 15.0196 14.2071 15.2071C14.0196 15.3946 13.7652 15.5 13.5 15.5C13.2348 15.5 12.9804 15.3946 12.7929 15.2071C12.6054 15.0196 12.5 14.7652 12.5 14.5ZM18.5 13.5C18.7652 13.5 19.0196 13.6054 19.2071 13.7929C19.3946 13.9804 19.5 14.2348 19.5 14.5C19.5 14.7652 19.3946 15.0196 19.2071 15.2071C19.0196 15.3946 18.7652 15.5 18.5 15.5C18.2348 15.5 17.9804 15.3946 17.7929 15.2071C17.6054 15.0196 17.5 14.7652 17.5 14.5C17.5 14.2348 17.6054 13.9804 17.7929 13.7929C17.9804 13.6054 18.2348 13.5 18.5 13.5Z" fill="var(--fill-0, white)"/>
</g>
</g>
<defs>
<clipPath id="clip0_1262_17109">
<rect width="16" height="16" fill="white" transform="translate(8 8)"/>
</clipPath>
</defs>
</svg>
