<svg preserveAspectRatio="none" width="100%" height="100%" overflow="visible" style="display: block;" viewBox="0 0 32 32" fill="none" xmlns="http://www.w3.org/2000/svg">
<g id="Group 2087324218">
<circle id="Ellipse 3247" cx="16" cy="16" r="16" fill="var(--fill-0, #67909B)"/>
<g id="mynaui:send">
<path id="Vector" d="M16.8326 15.1665L14.8326 17.1665M21.0246 10.5205C21.0879 10.4987 21.156 10.4951 21.2212 10.5101C21.2864 10.5252 21.346 10.5583 21.3933 10.6056C21.4406 10.653 21.4736 10.7127 21.4886 10.7779C21.5035 10.8431 21.4998 10.9113 21.4779 10.9745L17.5286 22.2612C17.505 22.3286 17.4616 22.3874 17.4041 22.43C17.3467 22.4725 17.2777 22.4968 17.2063 22.4996C17.1349 22.5025 17.0642 22.4838 17.0035 22.4461C16.9428 22.4083 16.8949 22.3532 16.8659 22.2878L14.7199 17.4598C14.6838 17.3795 14.6195 17.3153 14.5393 17.2792L9.71126 15.1325C9.64612 15.1034 9.5912 15.0555 9.55359 14.9948C9.51599 14.9342 9.49742 14.8637 9.50029 14.7925C9.50316 14.7212 9.52734 14.6524 9.5697 14.595C9.61206 14.5376 9.67066 14.4942 9.73792 14.4705L21.0246 10.5205Z" stroke="var(--stroke-0, white)" stroke-linecap="round" stroke-linejoin="round"/>
</g>
</g>
</svg>
