<svg preserveAspectRatio="none" width="100%" height="100%" overflow="visible" style="display: block;" viewBox="0 0 24 24" fill="none" xmlns="http://www.w3.org/2000/svg">
<g id="ion:checkmark-done-circle">
<path id="Vector" d="M12.1359 2.25C6.6525 2.17594 2.17594 6.6525 2.25 12.1359C2.32312 17.3948 6.60516 21.6769 11.8641 21.75C17.3484 21.825 21.8241 17.3484 21.7491 11.865C21.6769 6.60516 17.3948 2.32312 12.1359 2.25ZM11.3489 11.272L13.7653 8.50641C13.8962 8.3566 14.0813 8.26493 14.2798 8.25157C14.4783 8.23821 14.6739 8.30425 14.8237 8.43516C14.9736 8.56607 15.0652 8.75112 15.0786 8.94962C15.0919 9.14811 15.0259 9.34379 14.895 9.49359L12.4786 12.2592C12.4138 12.3334 12.335 12.3941 12.2467 12.4378C12.1584 12.4815 12.0624 12.5074 11.9641 12.5141C11.8658 12.5207 11.7672 12.5079 11.6739 12.4764C11.5805 12.4449 11.4943 12.3953 11.4202 12.3305C11.346 12.2656 11.2853 12.1869 11.2416 12.0986C11.1978 12.0103 11.1719 11.9143 11.1653 11.816C11.1587 11.7177 11.1715 11.6191 11.203 11.5258C11.2345 11.4324 11.2841 11.3462 11.3489 11.272ZM9.52734 15.5306C9.38671 15.6712 9.19602 15.7501 8.99719 15.7501C8.79836 15.7501 8.60767 15.6712 8.46703 15.5306L6.21937 13.2806C6.14975 13.2109 6.09454 13.1282 6.05688 13.0372C6.01923 12.9462 5.99987 12.8486 5.99991 12.7501C5.99996 12.6516 6.0194 12.5541 6.05714 12.4631C6.09487 12.3721 6.15016 12.2895 6.21984 12.2198C6.28953 12.1502 6.37224 12.095 6.46326 12.0574C6.55428 12.0197 6.65183 12.0003 6.75033 12.0004C6.84883 12.0004 6.94636 12.0199 7.03735 12.0576C7.12834 12.0953 7.211 12.1506 7.28063 12.2203L9.53063 14.4703C9.67074 14.6114 9.7491 14.8023 9.74848 15.0011C9.74787 15.2 9.66833 15.3904 9.52734 15.5306ZM17.8148 9.49359L12.5705 15.4936C12.5029 15.571 12.4201 15.6337 12.3273 15.6778C12.2345 15.7219 12.1336 15.7465 12.0309 15.75H12.0056C11.9071 15.75 11.8095 15.7306 11.7184 15.6929C11.6274 15.6552 11.5447 15.5999 11.475 15.5302L9.22781 13.2802C9.08721 13.1394 9.00826 12.9486 9.00835 12.7497C9.00844 12.5507 9.08755 12.36 9.22828 12.2194C9.36901 12.0788 9.55983 11.9998 9.75877 11.9999C9.9577 12 10.1485 12.0791 10.2891 12.2198L11.6859 13.6181C11.7223 13.6544 11.7656 13.6829 11.8134 13.7018C11.8612 13.7207 11.9123 13.7295 11.9637 13.7278C12.015 13.7261 12.0654 13.7138 12.1118 13.6918C12.1582 13.6698 12.1996 13.6385 12.2334 13.5998L16.6866 8.50641C16.8175 8.3566 17.0025 8.26493 17.201 8.25157C17.3995 8.23821 17.5952 8.30425 17.745 8.43516C17.8948 8.56607 17.9865 8.75112 17.9998 8.94962C18.0132 9.14811 17.9472 9.34379 17.8162 9.49359H17.8148Z" fill="var(--fill-0, #008000)"/>
</g>
</svg>
