<svg preserveAspectRatio="none" width="100%" height="100%" overflow="visible" style="display: block;" viewBox="0 0 16 16" fill="none" xmlns="http://www.w3.org/2000/svg">
<g id="teenyicons:curved-connector-outline" clip-path="url(#clip0_1262_17078)">
<path id="Vector" d="M2.66667 1.6C2.66667 1.8829 2.55429 2.15421 2.35425 2.35425C2.15421 2.55429 1.8829 2.66667 1.6 2.66667C1.3171 2.66667 1.04579 2.55429 0.845753 2.35425C0.645714 2.15421 0.533333 1.8829 0.533333 1.6C0.533333 1.3171 0.645714 1.04579 0.845753 0.845753C1.04579 0.645714 1.3171 0.533333 1.6 0.533333C1.8829 0.533333 2.15421 0.645714 2.35425 0.845753C2.55429 1.04579 2.66667 1.3171 2.66667 1.6ZM2.66667 1.6H4.8C5.64869 1.6 6.46263 1.93714 7.06274 2.53726C7.66286 3.13737 8 3.95131 8 4.8V11.2C8 12.0487 8.33714 12.8626 8.93726 13.4627C9.53737 14.0629 10.3513 14.4 11.2 14.4H13.3333M13.3333 14.4C13.3333 14.6829 13.4457 14.9542 13.6458 15.1542C13.8458 15.3543 14.1171 15.4667 14.4 15.4667C14.6829 15.4667 14.9542 15.3543 15.1542 15.1542C15.3543 14.9542 15.4667 14.6829 15.4667 14.4C15.4667 14.1171 15.3543 13.8458 15.1542 13.6458C14.9542 13.4457 14.6829 13.3333 14.4 13.3333C14.1171 13.3333 13.8458 13.4457 13.6458 13.6458C13.4457 13.8458 13.3333 14.1171 13.3333 14.4Z" stroke="var(--stroke-0, #06263D)"/>
</g>
<defs>
<clipPath id="clip0_1262_17078">
<rect width="16" height="16" fill="white"/>
</clipPath>
</defs>
</svg>
