<svg preserveAspectRatio="none" width="100%" height="100%" overflow="visible" style="display: block;" viewBox="0 0 24 28" fill="none" xmlns="http://www.w3.org/2000/svg">
<path id="Vector" d="M21.3333 2.8H20V0H17.3333V2.8H6.66667V0H4V2.8H2.66667C1.2 2.8 0 4.06 0 5.6V25.2C0 26.74 1.2 28 2.66667 28H21.3333C22.8 28 24 26.74 24 25.2V5.6C24 4.06 22.8 2.8 21.3333 2.8ZM21.3333 25.2H2.66667V11.2H21.3333V25.2ZM2.66667 8.4V5.6H21.3333V8.4H2.66667ZM10.08 23.044L17.9867 14.742L16.5733 13.258L10.08 20.076L7.26667 17.122L5.85333 18.606L10.08 23.044Z" fill="var(--fill-0, white)"/>
</svg>
