<svg preserveAspectRatio="none" width="100%" height="100%" overflow="visible" style="display: block;" viewBox="0 0 240 955" fill="none" xmlns="http://www.w3.org/2000/svg">
<path id="Subtract" d="M240 54C240 72.7777 224.778 88 206 88H44C30.7452 88 20 98.7452 20 112V112C20 125.255 30.7452 136 44 136H206C224.778 136 240 151.222 240 170V468C240 470.761 237.761 473 235 473V473C223.402 473 214 482.402 214 494V499C214 510.598 223.402 520 235 520V520C237.761 520 240 522.239 240 525V921C240 939.778 224.778 955 206 955H34C15.2223 955 0 939.778 0 921V34C0 15.2223 15.2223 0 34 0H206C224.778 0 240 15.2223 240 34V54Z" fill="var(--fill-0, #C0CED2)"/>
</svg>
