<svg preserveAspectRatio="none" width="100%" height="100%" overflow="visible" style="display: block;" viewBox="0 0 110 20" fill="none" xmlns="http://www.w3.org/2000/svg">
<g id="Logo" clip-path="url(#clip0_2014_8783)">
<path id="Vector" d="M10 20C15.523 20 20 15.523 20 10V3C20 2.20435 19.684 1.44129 19.1213 0.87868C18.5587 0.31607 17.7957 0 17 0L10.5 0V4.387C10.5 5.388 10.561 6.425 11.086 7.277C11.4619 7.8876 11.9647 8.41022 12.5603 8.8094C13.1559 9.20857 13.8304 9.47497 14.538 9.5905L14.7295 9.6215C14.8085 9.64849 14.877 9.69948 14.9255 9.76735C14.9741 9.83522 15.0001 9.91657 15.0001 10C15.0001 10.0834 14.9741 10.1648 14.9255 10.2326C14.877 10.3005 14.8085 10.3515 14.7295 10.3785L14.538 10.4095C13.5041 10.5784 12.5494 11.0678 11.8086 11.8086C11.0678 12.5493 10.5784 13.5041 10.4095 14.538L10.3785 14.7295C10.3515 14.8084 10.3005 14.877 10.2327 14.9255C10.1648 14.974 10.0835 15.0001 10 15.0001C9.91659 15.0001 9.83525 14.974 9.76738 14.9255C9.69951 14.877 9.64851 14.8084 9.62152 14.7295L9.59052 14.538C9.47496 13.8304 9.20855 13.1559 8.80938 12.5603C8.41021 11.9647 7.88761 11.4619 7.27702 11.086C6.42502 10.561 5.38802 10.5 4.38702 10.5H0.0120239C0.273524 15.7905 4.64502 20 10 20Z" fill="var(--fill-0, #06263D)"/>
<path id="Vector_2" d="M0 9.5H4.387C5.388 9.5 6.425 9.439 7.277 8.914C7.94301 8.50365 8.50365 7.94301 8.914 7.277C9.439 6.425 9.5 5.388 9.5 4.387V0H3C2.20435 0 1.44129 0.31607 0.87868 0.87868C0.31607 1.44129 0 2.20435 0 3L0 9.5ZM23.2275 1C23.2275 1.26522 23.1221 1.51957 22.9346 1.70711C22.7471 1.89464 22.4927 2 22.2275 2C21.9623 2 21.7079 1.89464 21.5204 1.70711C21.3329 1.51957 21.2275 1.26522 21.2275 1C21.2275 0.734784 21.3329 0.48043 21.5204 0.292893C21.7079 0.105357 21.9623 0 22.2275 0C22.4927 0 22.7471 0.105357 22.9346 0.292893C23.1221 0.48043 23.2275 0.734784 23.2275 1ZM105.855 6.052C108.651 6.052 110 8.0045 110 10.266V14.5135H107.075V10.77C107.075 9.745 106.7 8.899 105.628 8.899C104.555 8.899 104.198 9.745 104.198 10.77V14.513H101.272V10.77C101.272 9.745 100.915 8.899 99.842 8.899C98.7695 8.899 98.3955 9.745 98.3955 10.77V14.513H95.4705V10.2655C95.4705 8.004 96.819 6.0515 99.6145 6.0515C101.143 6.0515 102.248 6.6535 102.752 7.646C103.288 6.6535 104.458 6.051 105.855 6.051V6.052ZM90.2135 11.91C91.156 11.91 91.5625 11.0475 91.5625 10.022V6.377H94.4875V10.38C94.4875 12.772 93.09 14.7575 90.2135 14.7575C87.3365 14.7575 85.939 12.7725 85.939 10.38V6.377H88.8645V10.022C88.8645 11.047 89.2705 11.91 90.2135 11.91ZM81.6375 14.7735C79.801 14.7735 78.6145 14.139 77.9155 12.9025L80.0285 11.7145C80.321 12.235 80.7595 12.4955 81.491 12.4955C82.0925 12.4955 82.3685 12.284 82.3685 12.0235C82.3685 11.031 78.078 12.04 78.078 8.8835C78.078 7.3535 79.378 6.117 81.5885 6.117C83.5225 6.117 84.579 7.0605 85.0505 7.972L82.9375 9.176C82.759 8.688 82.206 8.395 81.6535 8.395C81.231 8.395 81.0035 8.574 81.0035 8.818C81.0035 9.827 85.294 8.8995 85.294 11.9585C85.294 13.667 83.62 14.7735 81.6375 14.7735ZM71.4165 18.256H68.491V10.429C68.491 7.939 70.36 6.133 72.9605 6.133C75.496 6.133 77.43 8.0695 77.43 10.429C77.43 13.0325 75.707 14.7575 73.123 14.7575C72.5215 14.7575 71.9205 14.5785 71.4165 14.3015V18.256ZM72.9605 12.0075C73.887 12.0075 74.5045 11.2915 74.5045 10.445C74.5045 9.583 73.887 8.883 72.9605 8.883C72.034 8.883 71.4165 9.583 71.4165 10.4455C71.4165 11.2915 72.034 12.0075 72.9605 12.0075ZM65.5605 5.515C64.6015 5.515 63.8055 4.7175 63.8055 3.7575C63.8055 2.7975 64.6015 2 65.5605 2C66.5195 2 67.316 2.7975 67.316 3.7575C67.316 4.7175 66.5195 5.515 65.5605 5.515ZM64.098 6.377H67.0235V14.5135H64.098V6.377ZM58.485 14.7575C55.9495 14.7575 54.0155 12.805 54.0155 10.429C54.0155 8.0695 55.9495 6.117 58.485 6.117C61.0205 6.117 62.9545 8.0695 62.9545 10.429C62.9545 12.805 61.0205 14.7575 58.485 14.7575ZM58.485 12.0075C59.4115 12.0075 60.029 11.2915 60.029 10.445C60.029 9.583 59.4115 8.867 58.485 8.867C57.5585 8.867 56.941 9.583 56.941 10.445C56.941 11.2915 57.5585 12.0075 58.485 12.0075ZM48.4915 18.5C46.4765 18.5 45.0135 17.605 44.266 16.01L46.6875 14.7085C46.9475 15.262 47.435 15.8315 48.4425 15.8315C49.4995 15.8315 50.198 15.164 50.2795 13.9925C49.8895 14.3345 49.2715 14.5945 48.3455 14.5945C46.086 14.5945 44.2655 12.8535 44.2655 10.4125C44.2655 8.0535 46.2 6.133 48.7355 6.133C51.336 6.133 53.205 7.9395 53.205 10.429V13.651C53.205 16.58 51.173 18.5 48.4915 18.5ZM48.6865 11.845C49.564 11.845 50.2305 11.2425 50.2305 10.3475C50.2305 9.469 49.5645 8.883 48.6865 8.883C47.825 8.883 47.1425 9.469 47.1425 10.348C47.1425 11.243 47.825 11.8445 48.6865 11.8445V11.845ZM39.3035 14.7575C36.768 14.7575 34.8335 12.805 34.8335 10.429C34.8335 8.0695 36.768 6.117 39.3035 6.117C41.8385 6.117 43.773 8.0695 43.773 10.429C43.773 12.805 41.839 14.7575 39.3035 14.7575ZM39.3035 12.0075C40.23 12.0075 40.8475 11.2915 40.8475 10.445C40.8475 9.583 40.23 8.867 39.3035 8.867C38.377 8.867 37.7595 9.583 37.7595 10.445C37.7595 11.2915 38.377 12.0075 39.3035 12.0075ZM29.5065 3.53V11.747H34.35V14.5135H29.1C27.2475 14.5135 26.5 13.537 26.5 11.991V3.53H29.5065Z" fill="var(--fill-0, #06263D)"/>
</g>
<defs>
<clipPath id="clip0_2014_8783">
<rect width="110" height="20" fill="white"/>
</clipPath>
</defs>
</svg>
