<svg preserveAspectRatio="none" width="100%" height="100%" overflow="visible" style="display: block;" viewBox="0 0 14 14" fill="none" xmlns="http://www.w3.org/2000/svg">
<g id="fluent:stack-48-regular">
<path id="Vector" d="M2.40658 2.33398C2.07782 2.33398 1.76252 2.46458 1.53006 2.69705C1.29759 2.92952 1.16699 3.24481 1.16699 3.57357V7.51107C1.16699 7.83983 1.29759 8.15512 1.53006 8.38759C1.76252 8.62005 2.07782 8.75065 2.40658 8.75065H8.67741C9.00617 8.75065 9.32146 8.62005 9.55393 8.38759C9.78639 8.15512 9.91699 7.83983 9.91699 7.51107V3.57357C9.91699 3.24481 9.78639 2.92952 9.55393 2.69705C9.32146 2.46458 9.00617 2.33398 8.67741 2.33398H2.40658ZM1.89616 3.57357C1.89616 3.29182 2.12483 3.06315 2.40658 3.06315H8.67741C8.95916 3.06315 9.18783 3.29182 9.18783 3.57357V7.51107C9.18783 7.64644 9.13405 7.77626 9.03833 7.87199C8.94261 7.96771 8.81278 8.02148 8.67741 8.02148H2.40658C2.2712 8.02148 2.14138 7.96771 2.04566 7.87199C1.94993 7.77626 1.89616 7.64644 1.89616 7.51107V3.57357ZM3.86491 10.209C3.62638 10.209 3.3929 10.1403 3.19248 10.0109C2.99206 9.8816 2.83321 9.69719 2.73499 9.47982H8.67741C8.93595 9.47982 9.19196 9.42889 9.43082 9.32996C9.66968 9.23102 9.88671 9.086 10.0695 8.90318C10.2523 8.72037 10.3974 8.50334 10.4963 8.26448C10.5952 8.02562 10.6462 7.76961 10.6462 7.51107V3.90198C10.8635 4.0002 11.0479 4.15905 11.1773 4.35947C11.3066 4.55989 11.3754 4.79337 11.3753 5.0319V7.51107C11.3753 7.86536 11.3055 8.21619 11.17 8.54352C11.0344 8.87084 10.8356 9.16826 10.5851 9.41878C10.3346 9.66931 10.0372 9.86803 9.70986 10.0036C9.38253 10.1392 9.0317 10.209 8.67741 10.209H3.86491ZM5.32324 11.6673C5.08471 11.6674 4.85123 11.5986 4.65081 11.4693C4.45039 11.3399 4.29154 11.1555 4.19333 10.9382H8.67741C10.5703 10.9382 12.1045 9.40398 12.1045 7.51107V5.36032C12.3219 5.45854 12.5063 5.61738 12.6356 5.8178C12.765 6.01822 12.8337 6.2517 12.8337 6.49023V7.51107C12.8337 9.80648 10.9728 11.6673 8.67741 11.6673H5.32324Z" fill="var(--fill-0, #06263D)"/>
</g>
</svg>
