<svg preserveAspectRatio="none" width="100%" height="100%" overflow="visible" style="display: block;" viewBox="0 0 24 24" fill="none" xmlns="http://www.w3.org/2000/svg">
<g id="radix-icons:share-2">
<path id="Vector" fill-rule="evenodd" clip-rule="evenodd" d="M5.6 8C5.38783 8 5.18434 8.08429 5.03431 8.23431C4.88429 8.38434 4.8 8.58783 4.8 8.8V18.4C4.8 18.6122 4.88429 18.8157 5.03431 18.9657C5.18434 19.1157 5.38783 19.2 5.6 19.2H18.4C18.6122 19.2 18.8157 19.1157 18.9657 18.9657C19.1157 18.8157 19.2 18.6122 19.2 18.4V8.8C19.2 8.58783 19.1157 8.38434 18.9657 8.23431C18.8157 8.08429 18.6122 8 18.4 8H16.4C16.1878 8 15.9843 7.91571 15.8343 7.76569C15.6843 7.61566 15.6 7.41217 15.6 7.2C15.6 6.98783 15.6843 6.78434 15.8343 6.63431C15.9843 6.48429 16.1878 6.4 16.4 6.4H18.4C19.0365 6.4 19.647 6.65286 20.0971 7.10294C20.5471 7.55303 20.8 8.16348 20.8 8.8V18.4C20.8 19.0365 20.5471 19.647 20.0971 20.0971C19.647 20.5471 19.0365 20.8 18.4 20.8H5.6C4.96348 20.8 4.35303 20.5471 3.90294 20.0971C3.45286 19.647 3.2 19.0365 3.2 18.4V8.8C3.2 8.16348 3.45286 7.55303 3.90294 7.10294C4.35303 6.65286 4.96348 6.4 5.6 6.4H7.6C7.81217 6.4 8.01566 6.48429 8.16569 6.63431C8.31571 6.78434 8.4 6.98783 8.4 7.2C8.4 7.41217 8.31571 7.61566 8.16569 7.76569C8.01566 7.91571 7.81217 8 7.6 8H5.6ZM11.2 2.6176L8.9088 4.9088C8.77231 5.03598 8.59179 5.10522 8.40526 5.10193C8.21873 5.09864 8.04076 5.02307 7.90884 4.89116C7.77693 4.75924 7.70136 4.58127 7.69807 4.39474C7.69478 4.20821 7.76402 4.02769 7.8912 3.8912L11.4912 0.2912C11.6262 0.156367 11.8092 0.0806334 12 0.0806334C12.1908 0.0806334 12.3738 0.156367 12.5088 0.2912L16.1088 3.8912C16.236 4.02769 16.3052 4.20821 16.3019 4.39474C16.2986 4.58127 16.2231 4.75924 16.0912 4.89116C15.9592 5.02307 15.7813 5.09864 15.5947 5.10193C15.4082 5.10522 15.2277 5.03598 15.0912 4.9088L12.8 2.6176V13.6C12.8 13.8122 12.7157 14.0157 12.5657 14.1657C12.4157 14.3157 12.2122 14.4 12 14.4C11.7878 14.4 11.5843 14.3157 11.4343 14.1657C11.2843 14.0157 11.2 13.8122 11.2 13.6V2.6176Z" fill="var(--fill-0, #333333)"/>
</g>
</svg>
