<svg preserveAspectRatio="none" width="100%" height="100%" overflow="visible" style="display: block;" viewBox="0 0 16 23" fill="none" xmlns="http://www.w3.org/2000/svg">
<g id="Icon">
<path id="Vector" d="M14.1125 13.4875C14.1958 13.4042 14.2375 13.3083 14.2375 13.2C14.2375 13.0917 14.1958 12.9958 14.1125 12.9125L8.2875 7.0875C8.20417 7.00417 8.10833 6.9625 8 6.9625C7.89167 6.9625 7.79583 7.00417 7.7125 7.0875L1.8875 12.9125C1.80417 12.9958 1.7625 13.0917 1.7625 13.2C1.7625 13.3083 1.80417 13.4042 1.8875 13.4875L2.5125 14.1125C2.59583 14.1958 2.69167 14.2375 2.8 14.2375C2.90833 14.2375 3.00417 14.1958 3.0875 14.1125L8 9.2L12.9125 14.1125C12.9958 14.1958 13.0917 14.2375 13.2 14.2375C13.3083 14.2375 13.4042 14.1958 13.4875 14.1125L14.1125 13.4875Z" fill="var(--fill-0, white)"/>
</g>
</svg>
