<svg preserveAspectRatio="none" width="100%" height="100%" overflow="visible" style="display: block;" viewBox="0 0 16 16" fill="none" xmlns="http://www.w3.org/2000/svg">
<g id="mdi:bug-outline">
<path id="Vector" d="M13.3349 5.33529H11.4615C11.1615 4.80195 10.7482 4.33529 10.2482 4.00195L11.3349 2.94195L10.3949 2.00195L8.94819 3.44862C8.32829 3.29819 7.68141 3.29819 7.06152 3.44862L5.60819 2.00195L4.66819 2.94195L5.74819 4.00195C5.24819 4.33529 4.84152 4.80862 4.54152 5.33529H2.66819V6.66862H4.06152C4.02152 6.88862 4.00152 7.10862 4.00152 7.33529V8.00195H2.66819V9.33529H4.00152V10.002C4.00152 10.2286 4.02152 10.4486 4.06152 10.6686H2.66819V12.002H4.54152C4.80442 12.4561 5.15424 12.8539 5.57099 13.1728C5.98774 13.4916 6.46325 13.7252 6.97032 13.8602C7.4774 13.9952 8.0061 14.0289 8.52621 13.9594C9.04633 13.8899 9.54765 13.7186 10.0015 13.4553C10.6082 13.1086 11.1149 12.602 11.4615 12.002H13.3349V10.6686H11.9415C11.9815 10.4486 12.0015 10.2286 12.0015 10.002V9.33529H13.3349V8.00195H12.0015V7.33529C12.0015 7.10862 11.9815 6.88862 11.9415 6.66862H13.3349V5.33529ZM10.6682 10.002C10.6682 10.7092 10.3872 11.3875 9.88714 11.8876C9.38704 12.3877 8.70876 12.6686 8.00152 12.6686C7.29427 12.6686 6.616 12.3877 6.1159 11.8876C5.6158 11.3875 5.33485 10.7092 5.33485 10.002V7.33529C5.33485 6.62804 5.6158 5.94977 6.1159 5.44967C6.616 4.94957 7.29427 4.66862 8.00152 4.66862C8.70876 4.66862 9.38704 4.94957 9.88714 5.44967C10.3872 5.94977 10.6682 6.62804 10.6682 7.33529V10.002ZM9.33485 6.66862V8.00195H6.66819V6.66862H9.33485ZM6.66819 9.33529H9.33485V10.6686H6.66819V9.33529Z" fill="var(--fill-0, white)"/>
</g>
</svg>
