<svg preserveAspectRatio="none" width="100%" height="100%" overflow="visible" style="display: block;" viewBox="0 0 16 16" fill="none" xmlns="http://www.w3.org/2000/svg">
<g id="stash:plus-solid">
<path id="Vector" d="M8 3.16667C8.46 3.16667 8.83333 3.54 8.83333 4V7.16667H12C12.221 7.16667 12.433 7.25446 12.5893 7.41074C12.7455 7.56702 12.8333 7.77899 12.8333 8C12.8333 8.22101 12.7455 8.43298 12.5893 8.58926C12.433 8.74554 12.221 8.83333 12 8.83333H8.83333V12C8.83333 12.221 8.74554 12.433 8.58926 12.5893C8.43298 12.7455 8.22101 12.8333 8 12.8333C7.77899 12.8333 7.56702 12.7455 7.41074 12.5893C7.25446 12.433 7.16667 12.221 7.16667 12V8.83333H4C3.77899 8.83333 3.56702 8.74554 3.41074 8.58926C3.25446 8.43298 3.16667 8.22101 3.16667 8C3.16667 7.77899 3.25446 7.56702 3.41074 7.41074C3.56702 7.25446 3.77899 7.16667 4 7.16667H7.16667V4C7.16667 3.54 7.54 3.16667 8 3.16667Z" fill="var(--fill-0, white)"/>
</g>
</svg>
