<svg preserveAspectRatio="none" width="100%" height="100%" overflow="visible" style="display: block;" viewBox="0 0 20 25" fill="none" xmlns="http://www.w3.org/2000/svg">
<g id="Group">
<path id="Vector" fill-rule="evenodd" clip-rule="evenodd" d="M0.464172 9.97873C0.295845 9.77693 0.168936 9.54394 0.0906979 9.29308C0.0124599 9.04221 -0.0155724 8.77838 0.0082022 8.51668C0.0319768 8.25497 0.107092 8.00052 0.229256 7.76786C0.35142 7.53519 0.518237 7.32889 0.720173 7.16073L8.72017 0.494729C8.92089 0.319134 9.15469 0.185455 9.40784 0.101555C9.66098 0.0176553 9.92834 -0.0147712 10.1942 0.00618412C10.4601 0.0271395 10.719 0.101053 10.9559 0.223577C11.1928 0.346101 11.4028 0.514759 11.5735 0.719631C11.7442 0.924503 11.8722 1.16145 11.95 1.41653C12.0278 1.67162 12.0538 1.93968 12.0265 2.20496C11.9992 2.47024 11.9191 2.72738 11.7909 2.96124C11.6627 3.1951 11.4891 3.40097 11.2802 3.56673L3.28017 10.2347C2.87274 10.5741 2.34723 10.7377 1.81917 10.6897C1.29112 10.6417 0.803736 10.386 0.464172 9.97873Z" fill="var(--fill-0, #06263D)"/>
<path id="Vector_2" fill-rule="evenodd" clip-rule="evenodd" d="M19.5362 9.97873C19.1966 10.386 18.7092 10.6417 18.1812 10.6897C17.6531 10.7377 17.1276 10.5741 16.7202 10.2347L8.72017 3.56673C8.51126 3.40097 8.33761 3.1951 8.20944 2.96124C8.08127 2.72738 8.00116 2.47024 7.97383 2.20496C7.9465 1.93968 7.9725 1.67162 8.0503 1.41653C8.1281 1.16145 8.25613 0.924503 8.42686 0.719631C8.59758 0.514759 8.80756 0.346101 9.04443 0.223577C9.2813 0.101053 9.54028 0.0271395 9.80614 0.00618412C10.072 -0.0147712 10.3394 0.0176553 10.5925 0.101555C10.8457 0.185455 11.0795 0.319134 11.2802 0.494729L19.2802 7.16073C19.4821 7.32889 19.6489 7.53519 19.7711 7.76786C19.8933 8.00052 19.9684 8.25497 19.9921 8.51668C20.0159 8.77838 19.9879 9.04221 19.9096 9.29308C19.8314 9.54394 19.7045 9.77693 19.5362 9.97873Z" fill="var(--fill-0, #06263D)"/>
<path id="Vector_3" fill-rule="evenodd" clip-rule="evenodd" d="M10.0002 4.03073C10.5306 4.03073 11.0393 4.24144 11.4144 4.61652C11.7895 4.99159 12.0002 5.5003 12.0002 6.03073V22.0307C12.0002 22.5612 11.7895 23.0699 11.4144 23.4449C11.0393 23.82 10.5306 24.0307 10.0002 24.0307C9.46974 24.0307 8.96103 23.82 8.58596 23.4449C8.21089 23.0699 8.00017 22.5612 8.00017 22.0307V6.03073C8.00017 5.5003 8.21089 4.99159 8.58596 4.61652C8.96103 4.24144 9.46974 4.03073 10.0002 4.03073Z" fill="var(--fill-0, #06263D)"/>
</g>
</svg>
