<svg preserveAspectRatio="none" width="100%" height="100%" overflow="visible" style="display: block;" viewBox="0 0 21 22" fill="none" xmlns="http://www.w3.org/2000/svg">
<g id="Group">
<path id="Vector" fill-rule="evenodd" clip-rule="evenodd" d="M12.5011 0.664C11.9408 1.43512 11.601 2.34423 11.5182 3.2938C11.4354 4.24337 11.6127 5.19758 12.031 6.05406C12.4493 6.91054 13.0929 7.63697 13.8927 8.15543C14.6926 8.67389 15.6185 8.96482 16.5711 8.997V9.008C16.5861 9.206 16.6011 9.409 16.6211 9.605C16.8581 11.852 17.3981 13.395 17.9171 14.408C18.2621 15.083 18.6011 15.531 18.8411 15.802C18.9465 15.9215 19.0601 16.0334 19.1811 16.137L19.1911 16.143C19.3194 16.2361 19.4149 16.3675 19.4639 16.5183C19.5129 16.6691 19.5128 16.8315 19.4637 16.9823C19.4146 17.133 19.319 17.2643 19.1906 17.3574C19.0622 17.4504 18.9077 17.5003 18.7491 17.5H0.749114C0.590916 17.4998 0.436828 17.4496 0.308885 17.3566C0.180943 17.2635 0.0856978 17.1324 0.0367709 16.982C-0.012156 16.8315 -0.0122592 16.6695 0.0364762 16.519C0.0852116 16.3684 0.18029 16.2372 0.308114 16.144L0.316114 16.137L0.380114 16.083C0.440114 16.029 0.537114 15.938 0.657114 15.802C0.897114 15.532 1.23611 15.084 1.58111 14.409C2.27111 13.06 2.99911 10.78 2.99911 7.15C2.99911 5.269 3.69911 3.456 4.95911 2.112C6.22111 0.766 7.94311 0 9.74911 0C10.1318 0 10.5094 0.0336666 10.8821 0.101C11.1201 0.144 11.9001 0.387 12.5011 0.664Z" fill="var(--fill-0, #06263D)"/>
<path id="Vector_2" fill-rule="evenodd" clip-rule="evenodd" d="M12.9991 3.75C12.9991 2.75544 13.3942 1.80161 14.0975 1.09835C14.8007 0.395088 15.7546 0 16.7491 0C17.7437 0 18.6975 0.395088 19.4008 1.09835C20.104 1.80161 20.4991 2.75544 20.4991 3.75C20.4991 4.74456 20.104 5.69839 19.4008 6.40165C18.6975 7.10491 17.7437 7.5 16.7491 7.5C15.7546 7.5 14.8007 7.10491 14.0975 6.40165C13.3942 5.69839 12.9991 4.74456 12.9991 3.75ZM7.64311 19.101C7.72834 19.0516 7.82246 19.0195 7.9201 19.0065C8.01774 18.9935 8.11698 18.9998 8.21216 19.0252C8.30734 19.0505 8.3966 19.0944 8.47483 19.1542C8.55306 19.2141 8.61874 19.2888 8.66811 19.374C8.77803 19.5633 8.93573 19.7204 9.12544 19.8296C9.31515 19.9389 9.53021 19.9964 9.74912 19.9964C9.96802 19.9964 10.1831 19.9389 10.3728 19.8296C10.5625 19.7204 10.7202 19.5633 10.8301 19.374C10.8796 19.2888 10.9453 19.2141 11.0236 19.1543C11.1019 19.0945 11.1912 19.0507 11.2864 19.0254C11.3817 19.0001 11.4809 18.9938 11.5786 19.0068C11.6763 19.0199 11.7704 19.0521 11.8556 19.1015C11.9408 19.1509 12.0155 19.2167 12.0753 19.295C12.1351 19.3733 12.1789 19.4626 12.2043 19.5578C12.2296 19.653 12.2359 19.7523 12.2228 19.85C12.2097 19.9476 12.1776 20.0418 12.1281 20.127C11.8864 20.5438 11.5394 20.8899 11.1219 21.1304C10.7044 21.3709 10.231 21.4976 9.74912 21.4976C9.26726 21.4976 8.79386 21.3709 8.37634 21.1304C7.95881 20.8899 7.61182 20.5438 7.37012 20.127C7.32058 20.0417 7.28834 19.9475 7.27525 19.8498C7.26216 19.752 7.26847 19.6527 7.29383 19.5574C7.31919 19.4621 7.36309 19.3727 7.42302 19.2944C7.48296 19.2161 7.55775 19.1504 7.64311 19.101Z" fill="var(--fill-0, #06263D)"/>
</g>
</svg>
