<svg width="14" height="14" viewBox="0 0 14 14" fill="none" xmlns="http://www.w3.org/2000/svg">
<path d="M1.55556 3.11111C1.96811 3.11111 2.36378 2.94722 2.6555 2.6555C2.94722 2.36378 3.11111 1.96811 3.11111 1.55556C3.11111 1.143 2.94722 0.747335 2.6555 0.455612C2.36378 0.163888 1.96811 0 1.55556 0C1.143 0 0.747335 0.163888 0.455612 0.455612C0.163888 0.747335 0 1.143 0 1.55556C0 1.96811 0.163888 2.36378 0.455612 2.6555C0.747335 2.94722 1.143 3.11111 1.55556 3.11111ZM12.4444 3.11111C12.857 3.11111 13.2527 2.94722 13.5444 2.6555C13.8361 2.36378 14 1.96811 14 1.55556C14 1.143 13.8361 0.747335 13.5444 0.455612C13.2527 0.163888 12.857 0 12.4444 0C12.0319 0 11.6362 0.163888 11.3445 0.455612C11.0528 0.747335 10.8889 1.143 10.8889 1.55556C10.8889 1.96811 11.0528 2.36378 11.3445 2.6555C11.6362 2.94722 12.0319 3.11111 12.4444 3.11111ZM14 12.4444C14 12.857 13.8361 13.2527 13.5444 13.5444C13.2527 13.8361 12.857 14 12.4444 14C12.0319 14 11.6362 13.8361 11.3445 13.5444C11.0528 13.2527 10.8889 12.857 10.8889 12.4444C10.8889 12.0319 11.0528 11.6362 11.3445 11.3445C11.6362 11.0528 12.0319 10.8889 12.4444 10.8889C12.857 10.8889 13.2527 11.0528 13.5444 11.3445C13.8361 11.6362 14 12.0319 14 12.4444ZM1.55556 14C1.96811 14 2.36378 13.8361 2.6555 13.5444C2.94722 13.2527 3.11111 12.857 3.11111 12.4444C3.11111 12.0319 2.94722 11.6362 2.6555 11.3445C2.36378 11.0528 1.96811 10.8889 1.55556 10.8889C1.143 10.8889 0.747335 11.0528 0.455612 11.3445C0.163888 11.6362 0 12.0319 0 12.4444C0 12.857 0.163888 13.2527 0.455612 13.5444C0.747335 13.8361 1.143 14 1.55556 14ZM3.857 1.94444C3.92302 1.55328 3.88822 1.15175 3.75589 0.777778H7.38889C7.90459 0.777778 8.39916 0.982638 8.76382 1.34729C9.12847 1.71195 9.33333 2.20652 9.33333 2.72222V4.66667H11.2778C11.7935 4.66667 12.2881 4.87153 12.6527 5.23618C13.0174 5.60084 13.2222 6.09541 13.2222 6.61111V10.2433C12.8482 10.1113 12.4467 10.0767 12.0556 10.143V6.61111C12.0556 6.40483 11.9736 6.207 11.8278 6.06114C11.6819 5.91528 11.4841 5.83333 11.2778 5.83333H9.33333V7.38889C9.33333 7.90459 9.12847 8.39916 8.76382 8.76382C8.39916 9.12847 7.90459 9.33333 7.38889 9.33333H5.83333V11.2778C5.83333 11.4841 5.91528 11.6819 6.06114 11.8278C6.207 11.9736 6.40483 12.0556 6.61111 12.0556H10.143C10.077 12.4467 10.1118 12.8483 10.2441 13.2222H6.61111C6.09541 13.2222 5.60084 13.0174 5.23618 12.6527C4.87153 12.2881 4.66667 11.7935 4.66667 11.2778V9.33333H2.72222C2.20652 9.33333 1.71195 9.12847 1.34729 8.76382C0.982638 8.39916 0.777778 7.90459 0.777778 7.38889V3.75667C1.15182 3.88873 1.55335 3.92327 1.94444 3.857V7.38889C1.94444 7.59517 2.02639 7.793 2.17225 7.93886C2.31811 8.08472 2.51594 8.16667 2.72222 8.16667H4.66667V6.61111C4.66667 6.09541 4.87153 5.60084 5.23618 5.23618C5.60084 4.87153 6.09541 4.66667 6.61111 4.66667H8.16667V2.72222C8.16667 2.51594 8.08472 2.31811 7.93886 2.17225C7.793 2.02639 7.59517 1.94444 7.38889 1.94444H3.857ZM7.38889 8.16667C7.59517 8.16667 7.793 8.08472 7.93886 7.93886C8.08472 7.793 8.16667 7.59517 8.16667 7.38889V5.83333H6.61111C6.40483 5.83333 6.207 5.91528 6.06114 6.06114C5.91528 6.207 5.83333 6.40483 5.83333 6.61111V8.16667H7.38889Z" fill="white"/>
</svg>
