<svg width="24" height="24" viewBox="0 0 24 24" fill="none" xmlns="http://www.w3.org/2000/svg">
<path fill-rule="evenodd" clip-rule="evenodd" d="M7.00021 9.00021C6.80246 9.00026 6.60916 9.05893 6.44475 9.16881C6.28034 9.2787 6.15221 9.43486 6.07654 9.61756C6.00086 9.80026 5.98106 10.0013 6.01963 10.1952C6.0582 10.3892 6.1534 10.5674 6.29321 10.7072L11.2932 15.7072C11.4807 15.8947 11.735 16 12.0002 16C12.2654 16 12.5197 15.8947 12.7072 15.7072L17.7072 10.7072C17.847 10.5674 17.9422 10.3892 17.9808 10.1952C18.0194 10.0013 17.9996 9.80026 17.9239 9.61756C17.8482 9.43486 17.7201 9.2787 17.5557 9.16881C17.3913 9.05893 17.198 9.00026 17.0002 9.00021L7.00021 9.00021Z" fill="#06263D"/>
</svg>
