<svg width="12" height="12" viewBox="0 0 12 12" fill="none" xmlns="http://www.w3.org/2000/svg">
<path d="M9.60188 3.84141H8.25308C8.03708 3.45741 7.73948 3.12141 7.37948 2.88141L8.16188 2.11821L7.48508 1.44141L6.44348 2.48301C5.99715 2.37469 5.5314 2.37469 5.08508 2.48301L4.03868 1.44141L3.36188 2.11821L4.13948 2.88141C3.77947 3.12141 3.48668 3.46221 3.27068 3.84141H1.92188V4.80141H2.92508C2.89628 4.95981 2.88188 5.11821 2.88188 5.28141V5.76141H1.92188V6.72141H2.88188V7.20141C2.88188 7.36461 2.89628 7.52301 2.92508 7.68141H1.92188V8.64141H3.27068C3.45996 8.96837 3.71184 9.25483 4.0119 9.4844C4.31196 9.71397 4.65432 9.88215 5.01941 9.97933C5.38451 10.0765 5.76518 10.1008 6.13966 10.0508C6.51414 10.0007 6.87509 9.87741 7.20188 9.68781C7.63868 9.43821 8.00348 9.07341 8.25308 8.64141H9.60188V7.68141H8.59868C8.62748 7.52301 8.64188 7.36461 8.64188 7.20141V6.72141H9.60188V5.76141H8.64188V5.28141C8.64188 5.11821 8.62748 4.95981 8.59868 4.80141H9.60188V3.84141ZM7.68188 7.20141C7.68188 7.71062 7.47959 8.19898 7.11952 8.55905C6.75945 8.91912 6.27109 9.12141 5.76188 9.12141C5.25266 9.12141 4.7643 8.91912 4.40423 8.55905C4.04416 8.19898 3.84188 7.71062 3.84188 7.20141V5.28141C3.84188 4.77219 4.04416 4.28383 4.40423 3.92376C4.7643 3.56369 5.25266 3.36141 5.76188 3.36141C6.27109 3.36141 6.75945 3.56369 7.11952 3.92376C7.47959 4.28383 7.68188 4.77219 7.68188 5.28141V7.20141ZM6.72188 4.80141V5.76141H4.80188V4.80141H6.72188ZM4.80188 6.72141H6.72188V7.68141H4.80188V6.72141Z" fill="white"/>
</svg>
