<svg width="24" height="24" viewBox="0 0 24 24" fill="none" xmlns="http://www.w3.org/2000/svg">
<path d="M4.50085 17.2798L8.48306 13.2976C8.70741 13.0732 8.96915 12.9655 9.26828 12.9745C9.56741 12.9835 9.82915 13.1005 10.0535 13.3256C10.2592 13.55 10.362 13.8117 10.362 14.1108C10.362 14.41 10.2592 14.6717 10.0535 14.896L5.31412 19.6635C5.08977 19.8878 4.82803 20 4.5289 20C4.22977 20 3.96802 19.8878 3.74367 19.6635L1.33192 17.2517C1.12626 17.0461 1.02344 16.7843 1.02344 16.4665C1.02344 16.1487 1.12626 15.8869 1.33192 15.6813C1.53757 15.4756 1.79931 15.3728 2.11714 15.3728C2.43497 15.3728 2.69671 15.4756 2.90236 15.6813L4.50085 17.2798ZM4.50085 8.30578L8.48306 4.32358C8.70741 4.09923 8.96915 3.99154 9.26828 4.00052C9.56741 4.00949 9.82915 4.12653 10.0535 4.35162C10.2592 4.57597 10.362 4.83772 10.362 5.13685C10.362 5.43598 10.2592 5.69772 10.0535 5.92207L5.31412 10.6895C5.08977 10.9138 4.82803 11.026 4.5289 11.026C4.22977 11.026 3.96802 10.9138 3.74367 10.6895L1.33192 8.27774C1.12626 8.07209 1.02344 7.81035 1.02344 7.49252C1.02344 7.17469 1.12626 6.91295 1.33192 6.70729C1.53757 6.50164 1.79931 6.39881 2.11714 6.39881C2.43497 6.39881 2.69671 6.50164 2.90236 6.70729L4.50085 8.30578ZM14.0077 18.2052C13.6898 18.2052 13.4236 18.0975 13.209 17.8821C12.9944 17.6668 12.8867 17.4005 12.8859 17.0835C12.8852 16.7664 12.9929 16.5001 13.209 16.2848C13.4251 16.0694 13.6913 15.9617 14.0077 15.9617H21.8599C22.1777 15.9617 22.4443 16.0694 22.6597 16.2848C22.8751 16.5001 22.9824 16.7664 22.9816 17.0835C22.9809 17.4005 22.8732 17.6671 22.6586 17.8833C22.444 18.0994 22.1777 18.2067 21.8599 18.2052H14.0077ZM14.0077 9.23123C13.6898 9.23123 13.4236 9.12354 13.209 8.90816C12.9944 8.69279 12.8867 8.42656 12.8859 8.10948C12.8852 7.7924 12.9929 7.52617 13.209 7.31079C13.4251 7.09542 13.6913 6.98773 14.0077 6.98773H21.8599C22.1777 6.98773 22.4443 7.09542 22.6597 7.31079C22.8751 7.52617 22.9824 7.7924 22.9816 8.10948C22.9809 8.42656 22.8732 8.69316 22.6586 8.90928C22.444 9.12541 22.1777 9.23272 21.8599 9.23123H14.0077Z" fill="#999999"/>
</svg>
