<svg width="16" height="16" viewBox="0 0 16 16" fill="none" xmlns="http://www.w3.org/2000/svg">
<path d="M14.4739 4.86004C14.412 4.79756 14.3382 4.74796 14.257 4.71411C14.1758 4.68027 14.0886 4.66284 14.0006 4.66284C13.9126 4.66284 13.8255 4.68027 13.7442 4.71411C13.663 4.74796 13.5893 4.79756 13.5273 4.86004L9.33394 9.06004L6.47394 6.19337C6.41197 6.13089 6.33823 6.08129 6.257 6.04745C6.17576 6.0136 6.08862 5.99618 6.00061 5.99618C5.9126 5.99618 5.82547 6.0136 5.74423 6.04745C5.66299 6.08129 5.58925 6.13089 5.52728 6.19337L1.52728 10.1934C1.46479 10.2553 1.4152 10.3291 1.38135 10.4103C1.3475 10.4916 1.33008 10.5787 1.33008 10.6667C1.33008 10.7547 1.3475 10.8419 1.38135 10.9231C1.4152 11.0043 1.46479 11.0781 1.52728 11.14C1.58925 11.2025 1.66299 11.2521 1.74423 11.286C1.82547 11.3198 1.9126 11.3372 2.00061 11.3372C2.08862 11.3372 2.17576 11.3198 2.25699 11.286C2.33823 11.2521 2.41197 11.2025 2.47394 11.14L6.00061 7.60671L8.86061 10.4734C8.92259 10.5359 8.99632 10.5855 9.07756 10.6193C9.1588 10.6531 9.24594 10.6706 9.33394 10.6706C9.42195 10.6706 9.50909 10.6531 9.59033 10.6193C9.67157 10.5855 9.7453 10.5359 9.80728 10.4734L14.4739 5.80671C14.5364 5.74473 14.586 5.671 14.6199 5.58976C14.6537 5.50852 14.6711 5.42138 14.6711 5.33337C14.6711 5.24537 14.6537 5.15823 14.6199 5.07699C14.586 4.99575 14.5364 4.92202 14.4739 4.86004Z" fill="white"/>
</svg>
