<svg width="20" height="18" viewBox="0 0 20 18" fill="none" xmlns="http://www.w3.org/2000/svg">
<path fill-rule="evenodd" clip-rule="evenodd" d="M3.312 7.762C6.23 2.587 7.689 0 10 0C12.311 0 13.77 2.587 16.688 7.762L17.052 8.406C19.477 12.706 20.69 14.856 19.594 16.428C18.498 18 15.786 18 10.364 18H9.636C4.214 18 1.502 18 0.405996 16.428C-0.690004 14.856 0.522996 12.706 2.948 8.406L3.312 7.762ZM10 4.25C10.1989 4.25 10.3897 4.32902 10.5303 4.46967C10.671 4.61032 10.75 4.80109 10.75 5V10C10.75 10.1989 10.671 10.3897 10.5303 10.5303C10.3897 10.671 10.1989 10.75 10 10.75C9.80108 10.75 9.61032 10.671 9.46967 10.5303C9.32901 10.3897 9.25 10.1989 9.25 10V5C9.25 4.80109 9.32901 4.61032 9.46967 4.46967C9.61032 4.32902 9.80108 4.25 10 4.25ZM10 14C10.2652 14 10.5196 13.8946 10.7071 13.7071C10.8946 13.5196 11 13.2652 11 13C11 12.7348 10.8946 12.4804 10.7071 12.2929C10.5196 12.1054 10.2652 12 10 12C9.73478 12 9.48043 12.1054 9.29289 12.2929C9.10535 12.4804 9 12.7348 9 13C9 13.2652 9.10535 13.5196 9.29289 13.7071C9.48043 13.8946 9.73478 14 10 14Z" fill="#FF0000"/>
</svg>
